<?xml version="1.0" encoding="UTF-8"?>
<svg version="1.1" xmlns="http://www.w3.org/2000/svg" width="512" height="512">
<path d="M0 0 C0.92515915 0.00424484 1.8503183 0.00848969 2.80351257 0.01286316 C5.74821505 0.02960882 8.69222435 0.06725353 11.63671875 0.10546875 C13.63735988 0.1205209 15.63801178 0.13420838 17.63867188 0.14648438 C22.53411982 0.17949892 27.4290519 0.231253 32.32421875 0.29296875 C27.59665164 18.13332585 22.61150776 35.88643202 17.44921875 53.60546875 C16.43521794 57.08807866 15.42200361 60.57090734 14.41134644 64.05448914 C13.79120131 66.19195808 13.16917503 68.32888247 12.54495239 70.46516418 C12.12848953 71.90033638 12.12848953 71.90033638 11.70361328 73.36450195 C11.46047394 74.19875198 11.21733459 75.03300201 10.96682739 75.89253235 C7.26982639 89.70251744 9.21679793 102.18341957 16.07421875 114.60546875 C22.30666141 124.3280793 32.19475932 130.45140464 43.32421875 133.29296875 C51.16715266 134.45318171 58.983257 134.44308004 66.89220047 134.46163368 C69.35028445 134.46889626 71.80817973 134.48463439 74.26620483 134.50297546 C81.24954599 134.55498159 88.23277803 134.60332707 95.21630859 134.61889648 C99.50632422 134.6290811 103.79585277 134.65866046 108.08567429 134.70021629 C109.70323345 134.71237778 111.32086181 134.71767531 112.93846512 134.71541786 C133.17931432 134.69412412 149.86387028 140.05841252 165.84985352 152.7956543 C174.38458329 159.58485269 185.05462772 164.09282501 196.19921875 163.58203125 C207.44183749 162.05270444 215.67064285 158.47502405 224.44921875 151.48046875 C240.65947547 138.65785178 257.80250255 134.68652149 277.9921875 134.75390625 C279.64595316 134.7439642 281.2997078 134.7320099 282.95344543 134.71817017 C287.26415801 134.68613561 291.57461717 134.67544606 295.88543701 134.67132568 C302.79172836 134.66249801 309.69781508 134.62661113 316.60393715 134.57915115 C318.99004319 134.56674243 321.37587753 134.56730762 323.76200867 134.56942749 C339.68323791 134.52826106 353.65366823 132.66611176 366.32421875 122.29296875 C374.31752484 114.21940858 379.24981572 103.01242862 379.82421875 91.66796875 C379.72276902 84.61225818 378.22678469 78.39115613 376.3203125 71.6171875 C375.8549131 69.92759666 375.8549131 69.92759666 375.38011169 68.20387268 C374.37279972 64.56363352 373.3509274 60.92778233 372.32421875 57.29296875 C371.9824762 56.08185425 371.64073364 54.87073975 371.28863525 53.6229248 C368.84508713 44.98525966 366.36926494 36.35699212 363.88671875 27.73046875 C362.79133117 23.92131248 361.69697106 20.11186443 360.60398865 16.30201721 C359.9320515 13.96010671 359.25881132 11.61856958 358.5841217 9.27745056 C358.28638351 8.24028397 357.98864532 7.20311737 357.68188477 6.13452148 C357.41875992 5.22032944 357.15563507 4.30613739 356.88453674 3.36424255 C356.32421875 1.29296875 356.32421875 1.29296875 356.32421875 0.29296875 C362.19575106 0.19385186 368.06679288 0.12138264 373.93896484 0.07324219 C375.93514493 0.05316706 377.9312665 0.02590086 379.92724609 -0.00878906 C382.80190495 -0.05748782 385.67578415 -0.08004111 388.55078125 -0.09765625 C389.88237778 -0.12862396 389.88237778 -0.12862396 391.24087524 -0.16021729 C396.73922066 -0.1621939 400.14306772 0.37096399 404.32421875 4.29296875 C408.38187961 11.28509284 410.42939426 18.77002819 412.63378906 26.50488281 C413.04754042 27.93503145 413.46193607 29.36499383 413.87692261 30.79478455 C414.99591302 34.65850976 416.10473712 38.52507941 417.21081638 42.39251804 C417.9038962 44.81401775 418.59923254 47.23485767 419.29537201 49.65547943 C421.72836451 58.11553367 424.15320534 66.57787432 426.5703125 75.04248047 C428.81665255 82.90827369 431.08061701 90.76884486 433.35292745 98.6271708 C435.30917112 105.39534606 437.2530568 112.1669915 439.18751597 118.94142509 C440.34041432 122.97809248 441.49809167 127.01322847 442.66825104 131.0449295 C443.76917103 134.83968134 444.85451778 138.63856016 445.92853165 142.44101143 C446.32291692 143.82758763 446.72261003 145.21266808 447.12828445 146.59598351 C452.81764292 166.02907327 452.81764292 166.02907327 448.63671875 174.85546875 C445.38270267 178.28537759 442.87103009 180.11088214 438.10316372 180.67214298 C436.87709439 180.67415431 435.65102507 180.67616564 434.38780212 180.67823792 C433.70187644 180.68347361 433.01595076 180.68870931 432.30923945 180.69410366 C430.01709575 180.70804146 427.72551711 180.70076981 425.43334961 180.69360352 C423.78707378 180.69934757 422.14080217 180.70643097 420.49453735 180.7147522 C416.95106543 180.72986161 413.40774415 180.73563983 409.86424065 180.73422432 C404.252635 180.73218843 398.64123111 180.75177512 393.02967834 180.7743988 C382.11981136 180.81538395 371.20996018 180.83396918 360.30003357 180.85057068 C346.43881426 180.87291637 332.57764187 180.90664809 318.71649843 180.95776981 C313.14761552 180.97760356 307.5788378 180.98726568 302.00992095 180.98872197 C298.53054952 180.99148978 295.05123525 181.00235864 291.57188797 181.01523209 C289.96921003 181.01947995 288.36651888 181.02039352 286.76383781 181.01755714 C271.48827477 180.99364364 257.36434559 181.55687685 245.57421875 192.48046875 C242.10942444 196.18564352 239.60993084 200.45255447 237.09765625 204.83984375 C235.0271325 207.70391625 233.50088781 208.75394043 230.32421875 210.29296875 C227.02992249 210.6806488 227.02992249 210.6806488 223.24243164 210.69702148 C222.20240746 210.70731636 222.20240746 210.70731636 221.14137268 210.71781921 C218.85966247 210.73605321 216.57864212 210.73225479 214.296875 210.7265625 C212.7041349 210.73112606 211.11139678 210.73643216 209.5186615 210.7424469 C206.18399038 210.75137137 202.84955883 210.74896268 199.51489258 210.73901367 C195.24989905 210.7275265 190.98573378 210.74773427 186.72084904 210.77693081 C183.43247764 210.79531257 180.14430399 210.79499644 176.85589409 210.78929329 C175.28387732 210.78914031 173.71184695 210.79516572 172.13987923 210.80758476 C169.93786399 210.8225308 167.73736936 210.81179351 165.53540039 210.79467773 C164.28473282 210.79451157 163.03406525 210.7943454 161.74549866 210.79417419 C157.67162849 210.19736658 155.51874956 208.8442607 152.32421875 206.29296875 C150.5234375 203.77734375 150.5234375 203.77734375 149.01171875 201.04296875 C143.02339852 191.2367675 135.3755461 185.54829021 124.32421875 182.29296875 C119.1656135 181.53506231 114.20968102 181.16700096 108.98666382 181.16166687 C108.29394147 181.15955116 107.60121911 181.15743544 106.88750517 181.15525562 C104.59083992 181.14931469 102.29423054 181.15025148 99.99755859 181.15112305 C98.34110929 181.14808777 96.68466082 181.1445653 95.0282135 181.14059448 C91.47336104 181.13273596 87.91851848 181.12757223 84.36365891 181.12430382 C78.74091298 181.11837188 73.11822959 181.10181301 67.49551392 181.08296204 C65.5675793 181.07662572 63.63964466 181.07030009 61.71170998 181.06398487 C60.74661798 181.06081906 59.78152598 181.05765325 58.78718877 181.0543915 C45.70546735 181.01236078 32.62377672 180.97931574 19.54199219 180.96704102 C10.70456858 180.95866387 1.86730167 180.9361926 -6.97004354 180.89768535 C-11.64269629 180.87792576 -16.31511483 180.86552011 -20.98781204 180.87051964 C-25.37926567 180.87516186 -29.77027434 180.86138426 -34.16163826 180.83350754 C-35.77166725 180.82659065 -37.38174219 180.82647458 -38.99176979 180.83370781 C-41.19244004 180.84259552 -43.39164243 180.82690689 -45.5921936 180.80522156 C-47.43770782 180.80163903 -47.43770782 180.80163903 -49.32050514 180.79798412 C-54.39547627 180.03413091 -57.42410609 177.92804501 -60.52389145 173.8787632 C-64.67122625 164.56871003 -60.49123038 153.45570278 -57.79199219 144.25634766 C-57.37351241 142.78687711 -56.95640155 141.31701615 -56.5405426 139.84680176 C-55.41644819 135.88840444 -54.2727085 131.93594355 -53.12455654 127.98446703 C-51.92171619 123.83423885 -50.73539226 119.67928923 -49.54669189 115.5249939 C-47.55012313 108.55691039 -45.54098031 101.5925503 -43.52392578 94.63037109 C-41.19503157 86.59135006 -38.88492459 78.54711574 -36.58502173 70.49975646 C-34.36631496 62.73772543 -32.13565764 54.97918058 -29.89911652 47.22227097 C-28.94977507 43.92920854 -28.00437758 40.63505223 -27.06212616 37.33995438 C-25.95229522 33.46121547 -24.83193484 29.58566911 -23.70347404 25.71231079 C-23.29192214 24.2935969 -22.88390221 22.87385276 -22.47974586 21.45301437 C-21.92600957 19.50864456 -21.35794215 17.56837335 -20.78924561 15.62832642 C-20.47583599 14.54329142 -20.16242638 13.45825642 -19.8395195 12.34034157 C-18.19003087 8.02097954 -16.03817037 4.47209351 -12.53051758 1.4362793 C-8.34218458 -0.24113141 -4.46913705 -0.07750036 0 0 Z " fill="#000000" transform="translate(61.67578125,301.70703125)"/>
<path d="M0 0 C1.0607222 0.00022659 2.1214444 0.00045319 3.21430969 0.00068665 C4.34781357 0.0161705 5.48131744 0.03165436 6.64916992 0.04760742 C7.81848557 0.05185226 8.98780121 0.05609711 10.19255066 0.06047058 C13.92181567 0.07724333 17.65053739 0.11489425 21.37963867 0.15307617 C23.91022982 0.16812477 26.44082945 0.18181286 28.97143555 0.1940918 C35.17018816 0.22714234 41.36862459 0.27732847 47.56713867 0.34057617 C47.57522552 1.45255875 47.58331238 2.56454132 47.59164429 3.71022034 C47.66920215 14.20075201 47.75696582 24.69115553 47.85466576 35.18151951 C47.90456513 40.57443747 47.9508958 45.96733644 47.98901367 51.36035156 C48.0259467 56.56701921 48.07232853 61.77352554 48.12520218 66.98005486 C48.14370352 68.96428529 48.15882713 70.94855026 48.17048264 72.93283272 C48.18741801 75.71678229 48.21647062 78.50036585 48.24829102 81.28417969 C48.2504512 82.10057922 48.25261139 82.91697876 48.25483704 83.75811768 C48.34351252 89.8498477 48.90005011 95.1971766 52.75463867 100.15307617 C58.40450557 104.54741709 64.65467562 104.63383676 71.51245117 104.59936523 C72.8138504 104.60462219 72.8138504 104.60462219 74.14154053 104.60998535 C76.99182279 104.61874343 79.84185415 104.61297449 82.69213867 104.60620117 C84.68318733 104.60754952 86.67423567 104.60949148 88.6652832 104.61199951 C92.83116806 104.61494275 96.99696696 104.61067885 101.1628418 104.60131836 C106.49238936 104.58992435 111.82173545 104.5964881 117.15127563 104.60846329 C121.26059476 104.61570347 125.36986643 104.61338404 129.47918701 104.6082077 C131.44390894 104.60687718 133.40863522 104.60849792 135.37335205 104.61316681 C138.12295892 104.61826754 140.87224321 104.61047208 143.62182617 104.59936523 C144.8299295 104.60543793 144.8299295 104.60543793 146.06243896 104.6116333 C152.13602522 104.56637197 157.43942218 103.99546677 162.37963867 100.15307617 C166.7861938 94.48750529 166.86777996 88.16491281 166.88598633 81.28417969 C166.89603195 80.40533615 166.90607758 79.52649261 166.91642761 78.62101746 C166.9471389 75.73717865 166.9642611 72.85343218 166.98120117 69.96948242 C166.99992252 67.96165682 167.01949665 65.95383901 167.03988647 63.94602966 C167.09111147 58.677181 167.13078871 53.40830685 167.16802979 48.13934326 C167.20812989 42.75648749 167.2591948 37.37373684 167.30932617 31.9909668 C167.40597138 21.44091054 167.49041259 10.89079479 167.56713867 0.34057617 C175.00517092 0.239037 182.44302397 0.16905184 189.8815918 0.12084961 C192.41128214 0.10075212 194.94092613 0.07346949 197.47045898 0.03881836 C201.10957284 -0.00977939 204.74807167 -0.03241195 208.38745117 -0.05004883 C209.51579376 -0.07069397 210.64413635 -0.09133911 211.80667114 -0.11260986 C217.8423836 -0.11432913 222.01584404 -0.07231338 226.56713867 4.34057617 C230.4215831 10.18245424 232.24493523 16.20038423 234.14233398 22.90039062 C234.47453949 24.04602478 234.806745 25.19165894 235.14901733 26.37200928 C236.05252129 29.49622536 236.94770009 32.62266637 237.83830357 35.75058007 C238.58537659 38.37058966 239.33803743 40.98898065 240.09061313 43.60741395 C241.86732256 49.78974104 243.63432019 55.97478649 245.39526367 62.16162109 C247.20623809 68.52358089 249.03360039 74.88066748 250.86912084 81.23558456 C252.44991734 86.71081261 254.02036392 92.18893763 255.58269954 97.66946191 C256.51353044 100.93433512 257.44812144 104.19800358 258.39273834 107.45891762 C259.44438323 111.0999838 260.47899789 114.74548648 261.50952148 118.39257812 C261.97698288 119.99125984 261.97698288 119.99125984 262.45388794 121.62223816 C264.51858393 129.0244474 266.39926534 136.53539002 262.94213867 143.71557617 C259.52045021 147.49744236 256.439867 150.04998524 251.30926514 150.84609985 C249.54537445 150.85037491 249.54537445 150.85037491 247.74584961 150.85473633 C247.09113678 150.86186142 246.43642395 150.86898651 245.76187134 150.87632751 C243.60810726 150.89553757 241.45533464 150.88733356 239.30151367 150.87963867 C237.78377885 150.88956503 236.26605604 150.90151358 234.74835205 150.91537476 C230.75051788 150.94770766 226.75295687 150.95812072 222.75500488 150.96221924 C215.64539732 150.97200914 208.53590797 151.01266539 201.42651367 151.06713867 C200.66962124 151.07272167 199.91272881 151.07830467 199.13290024 151.08405685 C169.32383713 151.33498022 144.51007262 157.18358998 120.21166992 175.07495117 C115.16306148 178.72454764 110.93858434 180.98346078 104.56713867 180.34057617 C99.25559335 178.39300955 95.1624589 175.36162924 90.56713867 172.09057617 C67.93226888 156.0116694 43.78257952 151.24153342 16.41232491 151.17191124 C14.13701426 151.16460538 11.86190245 151.14884747 9.58665466 151.13056946 C3.12875761 151.07869393 -3.32900744 151.03004434 -9.78710938 151.01464844 C-13.76400962 151.00455553 -17.74037114 150.97522975 -21.71705818 150.93332863 C-23.22203561 150.9210648 -24.72708906 150.9158889 -26.23211479 150.91812706 C-28.33273919 150.9204868 -30.4318125 150.89827756 -32.53222656 150.87060547 C-33.72323471 150.86473923 -34.91424286 150.85887299 -36.14134216 150.85282898 C-41.29221776 150.0512081 -44.37141652 147.51375201 -47.80786133 143.71557617 C-51.74803389 135.53214084 -48.80654895 126.6986659 -46.39111328 118.40844727 C-46.06752335 117.25916245 -45.74393341 116.10987762 -45.41053772 114.92576599 C-44.52753083 111.80109049 -43.632876 108.68006865 -42.73193002 105.56052732 C-41.7866509 102.27942904 -40.85448874 98.9946019 -39.92021179 95.71035767 C-38.34996017 90.19861958 -36.76875246 84.69011369 -35.18115234 79.18334961 C-33.35134961 72.83588643 -31.54012441 66.48334276 -29.73851806 60.12782419 C-27.99763969 53.98853108 -26.24255695 47.85338163 -24.48143578 41.71986771 C-23.73553691 39.12094857 -22.99473991 36.52065764 -22.25817299 33.91907883 C-21.22479337 30.28040106 -20.17533877 26.64673689 -19.12158203 23.01391602 C-18.8216333 21.94565079 -18.52168457 20.87738556 -18.21264648 19.77674866 C-16.12979091 12.68235189 -13.8842328 6.10217168 -7.95991516 1.36186218 C-5.11566563 0.21238439 -3.06290191 -0.02193009 0 0 Z " fill="#000000" transform="translate(148.432861328125,256.659423828125)"/>
<path d="M0 0 C0.91092911 -0.00524185 1.82185822 -0.0104837 2.76039124 -0.0158844 C4.68261701 -0.02229391 6.60488207 -0.02098148 8.52709961 -0.01245117 C11.45953608 -0.00394431 14.39002157 -0.03271196 17.32226562 -0.06445312 C19.19400984 -0.06606545 21.06575748 -0.06548702 22.9375 -0.0625 C23.80954575 -0.07373398 24.68159149 -0.08496796 25.58006287 -0.09654236 C31.03060697 -0.0345109 34.29030881 0.69096715 38.53515625 4.43359375 C41.77098302 8.6482229 41.94964546 12.39730182 41.87573242 17.52856445 C41.8761705 18.32908737 41.87660858 19.12961029 41.87705994 19.95439148 C41.87497671 22.58963761 41.85166803 25.22424057 41.828125 27.859375 C41.82252738 29.69068555 41.81825806 31.52200061 41.81526184 33.35331726 C41.80382614 38.16533892 41.77436992 42.97708746 41.7411499 47.78900146 C41.71042154 52.70239569 41.69675059 57.61583419 41.68164062 62.52929688 C41.64949901 72.16418227 41.59831805 81.79886527 41.53515625 91.43359375 C42.53660675 91.4247113 43.53805725 91.41582886 44.56985474 91.40667725 C54.01568652 91.32552858 63.46144741 91.26559821 72.9075489 91.22634506 C77.76370924 91.205486 82.61958777 91.17719905 87.47558594 91.13183594 C92.16346881 91.08831824 96.85108093 91.06444399 101.53915024 91.05408478 C103.32611223 91.04670404 105.11305969 91.03229104 106.89990616 91.01067352 C109.40641343 90.9815603 111.9118074 90.97764098 114.41845703 90.97949219 C115.1542952 90.96511108 115.89013336 90.95072998 116.64826965 90.93591309 C121.74881005 90.97657175 124.5942741 92.25072696 128.53515625 95.43359375 C132.29741316 99.82811262 131.98726606 104.38538494 131.96875 109.8984375 C131.97399185 110.80936661 131.9792337 111.72029572 131.9846344 112.65882874 C131.99104391 114.58105451 131.98973148 116.50331957 131.98120117 118.42553711 C131.97269431 121.35797358 132.00146196 124.28845907 132.03320312 127.22070312 C132.03481545 129.09244734 132.03423702 130.96419498 132.03125 132.8359375 C132.04810097 134.14400612 132.04810097 134.14400612 132.06529236 135.47850037 C132.0032609 140.92904447 131.27778285 144.18874631 127.53515625 148.43359375 C102.93874065 163.19144311 70.21925947 151.43359375 41.53515625 151.43359375 C41.53515625 211.16359375 41.53515625 270.89359375 41.53515625 332.43359375 C21.73515625 332.43359375 1.93515625 332.43359375 -18.46484375 332.43359375 C-18.46484375 272.70359375 -18.46484375 212.97359375 -18.46484375 151.43359375 C-45.19484375 151.43359375 -71.92484375 151.43359375 -99.46484375 151.43359375 C-106.7979416 146.54486185 -106.7979416 146.54486185 -108.46484375 142.43359375 C-108.89044343 139.27430706 -108.90913278 136.15321141 -108.8984375 132.96875 C-108.90367935 132.05782089 -108.9089212 131.14689178 -108.9143219 130.20835876 C-108.92073141 128.28613299 -108.91941898 126.36386793 -108.91088867 124.44165039 C-108.90238181 121.50921392 -108.93114946 118.57872843 -108.96289062 115.64648438 C-108.96450295 113.77474016 -108.96392452 111.90299252 -108.9609375 110.03125 C-108.97217148 109.15920425 -108.98340546 108.28715851 -108.99497986 107.38868713 C-108.9329484 101.93814303 -108.20747035 98.67844119 -104.46484375 94.43359375 C-100.27054199 91.22199726 -96.56627715 91.01855866 -91.46166992 91.09301758 C-90.67090057 91.0925795 -89.88013123 91.09214142 -89.06539917 91.09169006 C-86.46261543 91.09377306 -83.86048313 91.11708061 -81.2578125 91.140625 C-79.44892224 91.1462227 -77.64002742 91.15049198 -75.83113098 91.15348816 C-71.07829148 91.16492322 -66.32572854 91.19437887 -61.57299805 91.2276001 C-56.71992738 91.25832986 -51.86681187 91.27199971 -47.01367188 91.28710938 C-37.49727456 91.31924985 -27.98108218 91.37043002 -18.46484375 91.43359375 C-18.4737262 90.41961517 -18.48260864 89.4056366 -18.49176025 88.3609314 C-18.57290563 78.79736961 -18.63283773 69.23387782 -18.67209244 59.67004967 C-18.69295232 54.75335702 -18.72124082 49.83694265 -18.76660156 44.92041016 C-18.81011626 40.17417293 -18.83399289 35.42820311 -18.84435272 30.68178177 C-18.85173399 28.87249162 -18.86614802 27.06321584 -18.88776398 25.25403976 C-18.91687313 22.71640338 -18.92079668 20.17986678 -18.91894531 17.64208984 C-18.93332642 16.89690094 -18.94770752 16.15171204 -18.96252441 15.38394165 C-18.92214413 10.25653324 -17.67051167 7.3939763 -14.46484375 3.43359375 C-10.07032488 -0.32866316 -5.51305256 -0.01851606 0 0 Z " fill="#000000" transform="translate(244.46484375,-0.43359375)"/>
</svg>
