<svg width="50" height="50" viewBox="0 0 50 50" fill="none" xmlns="http://www.w3.org/2000/svg">
<path d="M24 2C24.66 2 25.32 2 26 2C26 2.66 26 3.32 26 4C26.66 4 27.32 4 28 4C28 4.66 28 5.32 28 6C27.34 6 26.68 6 26 6C26.3494 6.79664 26.6987 7.59328 27.0586 8.41406C27.5137 9.47367 27.9687 10.5333 28.4375 11.625C28.89 12.6691 29.3424 13.7133 29.8086 14.7891C31.6642 19.79 32.1262 24.5276 32.0977 29.8359C32.0945 30.8994 32.0912 31.9629 32.0879 33.0586C32.0795 34.153 32.0712 35.2474 32.0625 36.375C32.058 37.4926 32.0535 38.6102 32.0489 39.7617C32.0371 42.5078 32.0192 45.2539 32 48C27.38 48 22.76 48 18 48C17.8641 43.5615 17.7654 39.1271 17.6875 34.6875C17.6456 33.4442 17.6037 32.2009 17.5606 30.9199C17.448 22.3403 18.9399 16.508 23 9C23.33 8.01 23.66 7.02 24 6C23.34 6 22.68 6 22 6C22 5.34 22 4.68 22 4C22.66 4 23.32 4 24 4C24 3.34 24 2.68 24 2ZM24 25C24 25.66 24 26.32 24 27C24.66 27 25.32 27 26 27C26 26.34 26 25.68 26 25C25.34 25 24.68 25 24 25ZM24 40C23.67 41.98 23.34 43.96 23 46C24.32 46 25.64 46 27 46C26.67 44.02 26.34 42.04 26 40C25.34 40 24.68 40 24 40Z" fill="#BA1313"/>
<path d="M16 29C16 35.27 16 41.54 16 48C12.04 48 8.08 48 4 48C4 43.05 4 38.1 4 33C13.75 29 13.75 29 16 29ZM9 40C8.34 41.98 7.68 43.96 7 46C8.98 46 10.96 46 13 46C12.34 44.02 11.68 42.04 11 40C10.34 40 9.68 40 9 40Z" fill="#BA1313"/>
<path d="M34 29C44.875 31.875 44.875 31.875 46 33C46.0731 35.5305 46.0925 38.033 46.0625 40.5625C46.058 41.2734 46.0535 41.9843 46.0488 42.7168C46.037 44.4779 46.0191 46.239 46 48C42.04 48 38.08 48 34 48C34 41.73 34 35.46 34 29ZM39 40C38.34 41.98 37.68 43.96 37 46C38.98 46 40.96 46 43 46C42.34 44.02 41.68 42.04 41 40C40.34 40 39.68 40 39 40Z" fill="#BA1313"/>
</svg>
