<svg width="11" height="17" viewBox="0 0 11 17" fill="none" xmlns="http://www.w3.org/2000/svg">
<path d="M0.536314 -0.608116C0.477277 -0.607427 0.41871 -0.591337 0.365965 -0.560311C0.261165 -0.498258 0.196289 -0.385415 0.196289 -0.263378V3.99535C0.196289 4.12773 0.271927 4.24919 0.391551 4.30642L6.59683 7.28652C6.64406 7.30927 6.69563 7.32086 6.74631 7.32086C6.81319 7.32086 6.87996 7.30122 6.93753 7.26295L10.0402 5.19453C10.1401 5.12799 10.1982 5.01387 10.193 4.89355C10.1882 4.77358 10.1211 4.66498 10.0159 4.60672L0.70801 -0.56435C0.654575 -0.593998 0.59535 -0.608806 0.536314 -0.608116ZM0.54978 5.25243C0.489322 5.25088 0.428858 5.26569 0.374045 5.2962C0.264418 5.35687 0.196289 5.47168 0.196289 5.59717V16.2834C0.196289 16.5454 0.476723 16.7122 0.706663 16.5864L10.3647 11.0672C10.4723 11.0058 10.5384 10.892 10.5384 10.7682V6.28664C10.5384 6.14599 10.4533 6.01956 10.323 5.96682C10.192 5.91442 10.0428 5.94594 9.94524 6.04694L0.885765 15.5946L3.62818 7.42253C3.67403 7.27326 3.61378 7.11138 3.4814 7.02864L0.723496 5.30495C0.670234 5.27168 0.610239 5.25398 0.54978 5.25243Z" fill="#BA1313"/>
</svg>
