<svg width="29" height="28" viewBox="0 0 29 28" fill="none" xmlns="http://www.w3.org/2000/svg">
<path d="M22.6057 2.70446C22.6556 2.74259 22.7056 2.78071 22.7571 2.81999C24.1981 3.94584 25.4382 5.33589 26.3406 6.92927C26.3662 6.97421 26.3918 7.01915 26.4181 7.06545C28.2675 10.3561 28.6393 14.2047 27.6264 17.828C27.5021 18.2434 27.3571 18.6495 27.1978 19.0526C27.1811 19.0953 27.1643 19.138 27.147 19.182C26.7666 20.1327 26.2616 21.0362 25.6671 21.8692C25.6411 21.9059 25.6151 21.9426 25.5883 21.9805C25.1588 22.5833 24.6918 23.1338 24.1756 23.664C24.0834 23.7588 23.9922 23.8546 23.9013 23.9507C23.4818 24.385 23.0274 24.7545 22.5444 25.1143C22.4915 25.154 22.4915 25.154 22.4375 25.1945C19.4379 27.4293 15.7347 28.3706 12.0286 27.8679C9.03878 27.4228 6.4057 26.03 4.23693 23.951C4.17892 23.8962 4.12091 23.8414 4.06114 23.785C3.62429 23.3624 3.25244 22.9061 2.88989 22.4202C2.86377 22.3856 2.83764 22.3509 2.81073 22.3152C0.585117 19.35 -0.377754 15.5591 0.134585 11.8888C0.649113 8.367 2.48615 5.00222 5.33906 2.82692C5.3732 2.80067 5.40735 2.77441 5.44253 2.74737C9.95819 -0.708957 16.1502 -1.10179 22.6057 2.70446ZM7.05347 4.0515C6.98907 4.09854 6.92466 4.14559 6.8583 4.19405C6.38514 4.54604 5.94907 4.93037 5.52275 5.33731C5.4705 5.38633 5.41824 5.43534 5.36441 5.48584C4.94284 5.89212 4.58297 6.33601 4.23693 6.80681C4.21137 6.84158 4.18581 6.87635 4.15947 6.91217C2.34296 9.42257 1.55562 12.6513 2.00832 15.718C2.37186 17.967 3.22787 20.073 4.72677 21.8079C4.76852 21.8564 4.81027 21.9049 4.85329 21.9548C5.99924 23.2545 7.31325 24.2641 8.89035 24.9919C8.95996 25.0245 9.02958 25.057 9.1013 25.0906C12.0762 26.4262 15.4803 26.4104 18.5174 25.2913C18.9209 25.1359 19.3045 24.9458 19.6851 24.7413C19.7777 24.6918 19.8712 24.6441 19.9649 24.5967C22.7085 23.1781 24.6841 20.535 25.6286 17.6372C26.5846 14.5685 26.2603 11.2141 24.8096 8.35452C24.3888 7.55591 23.874 6.81187 23.2792 6.13329C23.2354 6.08278 23.1916 6.03226 23.1464 5.98022C20.9477 3.48965 17.9559 2.08014 14.6459 1.84726C11.9924 1.6842 9.20092 2.47752 7.05347 4.0515Z" fill="#BA1313"/>
<path d="M17.3476 7.27754C18.2442 7.99866 18.8433 8.85124 19.0254 10.013C19.1293 11.0438 18.9486 12.0701 18.3149 12.9097C17.5906 13.787 16.6808 14.2622 15.6588 14.722C14.9712 15.0334 14.9712 15.0334 14.5053 15.603C14.4961 15.6516 14.4869 15.7001 14.4775 15.7501C14.3785 16.163 14.1977 16.4176 13.8499 16.6647C13.6091 16.7851 13.317 16.7461 13.0539 16.726C12.7301 16.618 12.5763 16.4436 12.3804 16.1749C12.1827 15.5818 12.3133 14.9196 12.5753 14.3696C13.0912 13.4284 13.9436 12.9736 14.8908 12.5662C15.5848 12.2673 16.3716 11.9069 16.7349 11.2058C16.8794 10.7403 16.8783 10.0683 16.6932 9.61573C16.6263 9.4923 16.6263 9.4923 16.544 9.37846C16.5149 9.33608 16.4859 9.29369 16.456 9.25003C16.0649 8.74701 15.5009 8.48982 14.886 8.36627C13.9229 8.25115 12.8273 8.22453 12.013 8.8274C11.4973 9.29506 11.2939 9.86146 11.2171 10.5418C11.2196 10.6138 11.2221 10.6858 11.2247 10.7599C11.211 11.1363 11.0822 11.4726 10.8152 11.7396C10.4638 11.9469 10.0829 11.9235 9.68634 11.8889C9.38472 11.7513 9.22404 11.571 9.07404 11.2766C8.84034 10.4646 9.16394 9.46491 9.54432 8.74708C10.1346 7.68406 11.0407 6.95821 12.1998 6.60545C13.8661 6.13395 15.9019 6.24035 17.3476 7.27754Z" fill="#BA1313"/>
<path d="M13.8881 17.8245C14.1844 18.0035 14.3893 18.2262 14.5387 18.5398C14.6398 18.9947 14.6379 19.426 14.4258 19.8479C14.2557 20.0912 14.0168 20.2822 13.7341 20.3774C13.3068 20.451 12.8681 20.4618 12.4875 20.2358C12.1858 20.0076 11.9723 19.7509 11.902 19.3731C11.8646 18.9272 11.906 18.5453 12.1682 18.1744C12.5808 17.7078 13.316 17.6193 13.8881 17.8245Z" fill="#BA1313"/>
</svg>
