<?xml version="1.0" encoding="UTF-8"?>
<svg version="1.1" xmlns="http://www.w3.org/2000/svg" width="50" height="50">
<path d="M0 0 C4.90205038 2.7815005 7.34837558 5.99334769 9.5859375 11.12109375 C9.5859375 12.44109375 9.5859375 13.76109375 9.5859375 15.12109375 C10.2459375 15.12109375 10.9059375 15.12109375 11.5859375 15.12109375 C11.5859375 15.78109375 11.5859375 16.44109375 11.5859375 17.12109375 C12.2253125 17.43046875 12.8646875 17.73984375 13.5234375 18.05859375 C15.5859375 19.12109375 15.5859375 19.12109375 16.5859375 20.12109375 C16.73729694 21.90829945 16.80769528 23.70271251 16.8359375 25.49609375 C16.86171875 26.47320313 16.8875 27.4503125 16.9140625 28.45703125 C16.5859375 31.12109375 16.5859375 31.12109375 15.1953125 32.97265625 C13.5859375 34.12109375 13.5859375 34.12109375 11.5859375 34.12109375 C11.5859375 34.78109375 11.5859375 35.44109375 11.5859375 36.12109375 C10.9259375 36.12109375 10.2659375 36.12109375 9.5859375 36.12109375 C9.43125 37.54421875 9.43125 37.54421875 9.2734375 38.99609375 C8.5859375 42.12109375 8.5859375 42.12109375 5.5859375 44.12109375 C3.54296875 44.31640625 3.54296875 44.31640625 1.3984375 44.24609375 C0.1403125 44.20484375 -1.1178125 44.16359375 -2.4140625 44.12109375 C-2.4140625 44.78109375 -2.4140625 45.44109375 -2.4140625 46.12109375 C-6.0440625 46.12109375 -9.6740625 46.12109375 -13.4140625 46.12109375 C-13.4140625 44.14109375 -13.4140625 42.16109375 -13.4140625 40.12109375 C-9.7840625 40.12109375 -6.1540625 40.12109375 -2.4140625 40.12109375 C-2.4140625 40.78109375 -2.4140625 41.44109375 -2.4140625 42.12109375 C0.2259375 41.13109375 2.8659375 40.14109375 5.5859375 39.12109375 C5.70245475 34.74631901 5.7732975 30.37194548 5.8359375 25.99609375 C5.86945312 24.75859375 5.90296875 23.52109375 5.9375 22.24609375 C6.12736201 13.34769049 6.12736201 13.34769049 1.5859375 6.12109375 C-2.25119446 2.73538908 -6.04807712 2.60818203 -10.9765625 2.76953125 C-14.62202268 3.29531878 -16.705116 4.67643471 -19.4140625 7.12109375 C-22.07645858 10.8278617 -22.77987836 13.318572 -22.70703125 17.859375 C-22.6925293 19.45942383 -22.6925293 19.45942383 -22.67773438 21.09179688 C-22.65259766 22.19458984 -22.62746094 23.29738281 -22.6015625 24.43359375 C-22.58802734 25.55572266 -22.57449219 26.67785156 -22.56054688 27.83398438 C-22.5252763 30.59684604 -22.47598485 33.35872204 -22.4140625 36.12109375 C-24.3940625 36.12109375 -26.3740625 36.12109375 -28.4140625 36.12109375 C-28.4140625 35.46109375 -28.4140625 34.80109375 -28.4140625 34.12109375 C-29.0534375 33.81171875 -29.6928125 33.50234375 -30.3515625 33.18359375 C-32.4140625 32.12109375 -32.4140625 32.12109375 -33.4140625 31.12109375 C-33.56542194 29.33388805 -33.63582028 27.53947499 -33.6640625 25.74609375 C-33.70273437 24.28042969 -33.70273437 24.28042969 -33.7421875 22.78515625 C-33.4140625 20.12109375 -33.4140625 20.12109375 -32.0234375 18.26953125 C-30.4140625 17.12109375 -30.4140625 17.12109375 -28.4140625 17.12109375 C-28.4140625 16.46109375 -28.4140625 15.80109375 -28.4140625 15.12109375 C-27.7540625 15.12109375 -27.0940625 15.12109375 -26.4140625 15.12109375 C-26.3521875 14.08984375 -26.2903125 13.05859375 -26.2265625 11.99609375 C-25.05304385 6.39931249 -22.40245424 3.57601454 -17.8515625 0.24609375 C-12.0183369 -1.6629619 -5.84922235 -2.12957124 0 0 Z M-26.4140625 18.12109375 C-26.4140625 23.07109375 -26.4140625 28.02109375 -26.4140625 33.12109375 C-25.7540625 33.12109375 -25.0940625 33.12109375 -24.4140625 33.12109375 C-24.4140625 28.17109375 -24.4140625 23.22109375 -24.4140625 18.12109375 C-25.0740625 18.12109375 -25.7340625 18.12109375 -26.4140625 18.12109375 Z M7.5859375 18.12109375 C7.5859375 23.07109375 7.5859375 28.02109375 7.5859375 33.12109375 C8.2459375 33.12109375 8.9059375 33.12109375 9.5859375 33.12109375 C9.5859375 28.17109375 9.5859375 23.22109375 9.5859375 18.12109375 C8.9259375 18.12109375 8.2659375 18.12109375 7.5859375 18.12109375 Z M-29.4140625 20.12109375 C-30.92068347 23.1343357 -30.59176623 25.80395752 -30.4140625 29.12109375 C-29.7540625 29.78109375 -29.0940625 30.44109375 -28.4140625 31.12109375 C-28.4140625 27.49109375 -28.4140625 23.86109375 -28.4140625 20.12109375 C-28.7440625 20.12109375 -29.0740625 20.12109375 -29.4140625 20.12109375 Z M11.5859375 20.12109375 C11.5859375 23.75109375 11.5859375 27.38109375 11.5859375 31.12109375 C13.96588118 29.17777043 13.96588118 29.17777043 13.8359375 25.62109375 C13.96588118 22.06441707 13.96588118 22.06441707 11.5859375 20.12109375 Z M-10.4140625 42.12109375 C-10.4140625 42.78109375 -10.4140625 43.44109375 -10.4140625 44.12109375 C-8.7640625 44.12109375 -7.1140625 44.12109375 -5.4140625 44.12109375 C-5.4140625 43.46109375 -5.4140625 42.80109375 -5.4140625 42.12109375 C-7.0640625 42.12109375 -8.7140625 42.12109375 -10.4140625 42.12109375 Z " fill="#000000" transform="translate(33.4140625,1.87890625)"/>
</svg>
