<?xml version="1.0" standalone="no"?>
<!DOCTYPE svg PUBLIC "-//W3C//DTD SVG 20010904//EN"
 "http://www.w3.org/TR/2001/REC-SVG-20010904/DTD/svg10.dtd">
<svg version="1.0" xmlns="http://www.w3.org/2000/svg"
 width="50.000000pt" height="50.000000pt" viewBox="0 0 50.000000 50.000000"
 preserveAspectRatio="xMidYMid meet">

<g transform="translate(0.000000,50.000000) scale(0.100000,-0.100000)"
fill="#000000" stroke="none">
<path d="M175 471 c-48 -22 -69 -44 -91 -96 -9 -22 -32 -57 -50 -78 -45 -50
-46 -93 -3 -142 21 -24 39 -35 53 -33 19 3 21 10 24 97 2 58 -1 98 -8 106 -9
10 -7 23 5 50 60 126 230 126 290 -1 12 -26 14 -39 6 -47 -14 -14 -15 -194 -1
-202 15 -9 12 -23 -10 -45 -22 -22 -69 -27 -87 -9 -5 5 -30 9 -54 7 -39 -3
-44 -6 -44 -28 0 -22 5 -25 44 -28 24 -2 49 2 54 7 6 6 21 11 34 11 33 0 72
21 79 42 3 10 23 39 45 64 51 59 53 99 5 151 -18 21 -41 56 -50 78 -9 21 -24
48 -34 59 -24 27 -91 56 -132 56 -19 0 -53 -9 -75 -19z m-85 -246 c0 -50 -4
-85 -10 -85 -6 0 -10 35 -10 85 0 50 4 85 10 85 6 0 10 -35 10 -85z m340 0 c0
-50 -4 -85 -10 -85 -6 0 -10 35 -10 85 0 50 4 85 10 85 6 0 10 -35 10 -85z
m-380 -1 c0 -49 -2 -55 -15 -44 -18 15 -20 71 -3 88 7 7 13 12 15 12 2 0 3
-25 3 -56z m430 1 c0 -18 -7 -38 -15 -45 -13 -11 -15 -5 -15 45 0 50 2 56 15
45 8 -7 15 -27 15 -45z m-190 -175 c0 -5 -16 -10 -35 -10 -19 0 -35 5 -35 10
0 6 16 10 35 10 19 0 35 -4 35 -10z"/>
</g>
</svg>
