<?xml version="1.0" encoding="UTF-8"?>
<svg version="1.1" xmlns="http://www.w3.org/2000/svg" width="512" height="512">
<path d="M0 0 C0.71449749 -0.00320648 1.42899498 -0.00641296 2.16514391 -0.0097166 C4.55369618 -0.01800241 6.94199678 -0.01209735 9.33055305 -0.00622082 C11.06259804 -0.00924215 12.79464168 -0.01313154 14.52668297 -0.01781338 C19.282176 -0.02810448 24.03759373 -0.02590872 28.79309297 -0.02163279 C33.92339598 -0.01916759 39.05368077 -0.02817717 44.18397713 -0.03567028 C54.23321074 -0.04842502 64.28241765 -0.05021001 74.33165799 -0.04787002 C82.49932376 -0.04608757 90.66698142 -0.04783492 98.83464622 -0.05209446 C100.5778034 -0.05298724 100.5778034 -0.05298724 102.35617588 -0.05389806 C104.71693356 -0.0551098 107.07769124 -0.05632394 109.43844892 -0.05754044 C131.58185331 -0.06841896 153.72524247 -0.066252 175.86864771 -0.06015559 C196.12823571 -0.05498612 216.38777563 -0.06624214 236.64735411 -0.08525381 C257.44776199 -0.10462343 278.24814712 -0.11288975 299.04856408 -0.10913056 C310.7272615 -0.10721719 322.405918 -0.10971931 334.08460808 -0.1238451 C344.02672768 -0.13574869 353.96878116 -0.13717525 363.91090165 -0.12505493 C368.9833757 -0.1191591 374.05572876 -0.11808632 379.12819481 -0.13005733 C383.77302558 -0.14089174 388.41763398 -0.13784184 393.06245424 -0.12379565 C394.74139794 -0.12114199 396.42035894 -0.12353621 398.09928571 -0.13153151 C418.94561686 -0.22390235 418.94561686 -0.22390235 426.26812232 6.64254665 C432.55906247 14.23057931 433.32738636 22.00262452 433.23942757 31.538167 C433.24722752 32.84639235 433.25502747 34.15461769 433.26306379 35.50248623 C433.28382202 39.10931183 433.27367307 42.71547092 433.2581327 46.32229805 C433.24677745 50.22150839 433.26430248 54.12060748 433.2780323 58.01979542 C433.30022494 65.64864188 433.29548133 73.2772419 433.2809691 80.90609789 C433.26966116 87.10812077 433.26815267 93.31007475 433.27358818 99.51210499 C433.27435435 100.39597846 433.27512051 101.27985193 433.27590989 102.19050944 C433.27750858 103.98627681 433.27912964 105.78204415 433.28077285 107.57781148 C433.29501871 124.40299677 433.27865591 141.22804567 433.25177102 158.05320859 C433.22943329 172.47908982 433.23331374 186.90476986 433.25636482 201.33064747 C433.28314341 218.0970481 433.29364552 234.86332931 433.2783035 251.62974834 C433.27671082 253.41878094 433.27513896 255.20781356 433.27358818 256.9968462 C433.2728168 257.87700449 433.27204543 258.75716277 433.27125067 259.66399252 C433.26693985 265.85606837 433.27420689 272.04806825 433.28598595 278.24013233 C433.30003238 285.78982703 433.29616611 293.33926192 433.26958223 300.88892698 C433.25647269 304.73838722 433.25124222 308.58741483 433.26782799 312.43687153 C433.28555807 316.61521641 433.26433964 320.79247605 433.23942757 324.97078419 C433.25058118 326.17993803 433.26173478 327.38909187 433.27322638 328.63488674 C433.18631096 336.15693269 431.98900141 342.01788259 427.60450935 348.25447559 C421.21929132 354.48113314 414.52973001 356.50882039 405.61258125 356.49498463 C404.9450648 356.49669348 404.27754834 356.49840233 403.58980411 356.50016296 C401.37266973 356.50343421 399.15584395 356.49249372 396.93873787 356.48152637 C395.34166661 356.48096175 393.74459484 356.48127983 392.14752388 356.48241138 C387.82571637 356.48298389 383.50402046 356.47124617 379.18223882 356.45726347 C374.66056148 356.44473903 370.13888142 356.44358426 365.61718941 356.44121265 C357.06090022 356.43500292 348.50466231 356.41859895 339.94839567 356.39851367 C330.20477417 356.37613891 320.46115019 356.36515728 310.71750939 356.3551228 C290.67980776 356.33423228 270.64217639 356.29756236 250.60450935 356.25447559 C250.60450935 366.48447559 250.60450935 376.71447559 250.60450935 387.25447559 C255.67825935 387.13072559 255.67825935 387.13072559 260.85450935 387.00447559 C273.77622606 386.90032165 283.25778306 389.30931053 293.60450935 397.25447559 C294.21939217 397.69404591 294.83427498 398.13361622 295.4677906 398.58650684 C303.37013967 404.66658473 309.07146742 414.67588656 311.60450935 424.25447559 C311.54200935 427.75447559 311.54200935 427.75447559 310.60450935 430.25447559 C306.79019005 432.79735513 303.71846884 432.53889439 299.2982502 432.52190113 C298.01231969 432.5286978 298.01231969 432.5286978 296.70041078 432.53563178 C293.81690831 432.54833039 290.9335934 432.5466519 288.05006599 432.54500294 C285.98717187 432.55098473 283.92427998 432.55778947 281.86139107 432.56535816 C276.24989693 432.58305973 270.63846375 432.58771526 265.0269444 432.58898973 C260.34729122 432.59088617 255.66765232 432.59824067 250.98800462 432.60533392 C239.95074171 432.62163088 228.91351143 432.62650164 217.87623787 432.62508106 C206.4785088 432.62387892 195.08096887 432.64499236 183.68328768 432.67656839 C173.90744033 432.7026894 164.13165491 432.71345013 154.35577291 432.71217024 C148.51274024 432.71165943 142.66987561 432.71740852 136.82687759 432.73852634 C131.33326668 432.75783873 125.83998536 432.75808125 120.34636307 432.74349308 C118.32750151 432.74139524 116.3086197 432.74616349 114.28979301 432.758214 C111.53872087 432.77357471 108.78879828 432.76441955 106.03775215 432.74895191 C105.23435073 432.75923904 104.43094932 432.76952616 103.6032024 432.78012502 C100.05780607 432.73591691 97.98726446 432.53024871 95.07376957 430.43109035 C93.60450935 428.25447559 93.60450935 428.25447559 93.6631031 424.93416309 C96.88159138 412.35401392 104.14798795 401.73348586 114.85450935 394.44197559 C128.18931657 386.64065981 139.40910069 386.88385587 154.60450935 387.25447559 C154.60450935 377.02447559 154.60450935 366.79447559 154.60450935 356.25447559 C149.74417976 356.27018604 144.88385017 356.28589649 139.87623787 356.30208302 C123.81894104 356.35178907 107.76164118 356.38508158 91.70428753 356.40991211 C81.96859561 356.42536784 72.23297668 356.4464326 62.49733162 356.48079395 C54.00976875 356.51073594 45.52225876 356.53006 37.03464454 356.53674108 C32.54230288 356.5406452 28.05011246 356.54979344 23.55781937 356.57166576 C19.32499431 356.59210679 15.09238206 356.59829407 10.85951233 356.59379864 C9.31038823 356.59462044 7.76125662 356.60054063 6.21217537 356.61209202 C-13.71475949 356.75333206 -13.71475949 356.75333206 -21.05910361 349.86640453 C-27.35004376 342.27837188 -28.11836765 334.50632667 -28.03040886 324.97078419 C-28.03820881 323.66255884 -28.04600877 322.3543335 -28.05404508 321.00646496 C-28.07480331 317.39963936 -28.06465437 313.79348026 -28.04911399 310.18665314 C-28.03775875 306.2874428 -28.05528377 302.3883437 -28.0690136 298.48915577 C-28.09120623 290.8603093 -28.08646263 283.23170928 -28.07195039 275.6028533 C-28.06064245 269.40083042 -28.05913397 263.19887644 -28.06456947 256.9968462 C-28.06533564 256.11297273 -28.0661018 255.22909926 -28.06689119 254.31844175 C-28.06848987 252.52267438 -28.07011094 250.72690703 -28.07175414 248.93113971 C-28.086 232.10595442 -28.0696372 215.28090551 -28.04275231 198.4557426 C-28.02041458 184.02986136 -28.02429504 169.60418132 -28.04734612 155.17830372 C-28.0741247 138.41190309 -28.08462681 121.64562188 -28.0692848 104.87920284 C-28.06769211 103.09017024 -28.06612025 101.30113762 -28.06456947 99.51210499 C-28.0637981 98.6319467 -28.06302672 97.75178841 -28.06223197 96.84495866 C-28.05792114 90.65288281 -28.06518819 84.46088294 -28.07696724 78.26881886 C-28.09101367 70.71912416 -28.08714741 63.16968927 -28.06056352 55.6200242 C-28.04745398 51.77056397 -28.04222351 47.92153636 -28.05880928 44.07207966 C-28.07653936 39.89373478 -28.05532093 35.71647513 -28.03040886 31.538167 C-28.04156247 30.32901316 -28.05271608 29.11985931 -28.06420767 27.87406445 C-27.97729225 20.35201849 -26.7799827 14.4910686 -22.39549065 8.25447559 C-15.87353457 1.89447554 -9.08584108 0.0062093 0 0 Z M-15.24668121 18.72160816 C-16.98303691 24.06132276 -16.80776356 29.19942154 -16.77644157 34.7803545 C-16.78112155 36.05531599 -16.78580152 37.33027748 -16.79062331 38.64387417 C-16.80313733 42.17610625 -16.7969612 45.70809492 -16.78766465 49.24032784 C-16.78087612 53.0522504 -16.79135442 56.86413116 -16.79960442 60.67604542 C-16.81294604 68.14095105 -16.81006211 75.6057662 -16.80136649 83.07067537 C-16.79459204 89.13742249 -16.79367219 95.20414424 -16.79693794 101.27089405 C-16.79739764 102.13426148 -16.79785734 102.99762891 -16.79833097 103.88715899 C-16.79929014 105.64105941 -16.80026278 107.39495981 -16.80124874 109.14886022 C-16.80980389 125.59617391 -16.79996654 142.04343745 -16.78384764 158.49074292 C-16.77044435 172.60406956 -16.77277241 186.71732217 -16.78660393 200.83064747 C-16.80265753 217.21900559 -16.80897991 233.60731974 -16.79976714 249.99568462 C-16.79881149 251.74314212 -16.79786837 253.49059963 -16.79693794 255.23805714 C-16.79647512 256.09784534 -16.79601229 256.95763355 -16.79553544 257.84347594 C-16.79294489 263.90311432 -16.79731794 269.96272483 -16.8043766 276.02235889 C-16.81278935 283.40678193 -16.81051621 290.7911093 -16.79453437 298.17552137 C-16.7866486 301.94335572 -16.78356519 305.71103054 -16.79348183 309.47886372 C-16.80406645 313.56224701 -16.7914303 317.64522729 -16.77644157 321.72859669 C-16.78313374 322.92100279 -16.7898259 324.11340889 -16.79672086 325.34194851 C-16.82351643 333.27304494 -16.82351643 333.27304494 -13.39549065 340.25447559 C-8.86595958 343.86825556 -5.87303781 344.7548964 -0.11466789 344.75784016 C0.95669576 344.7665608 0.95669576 344.7665608 2.04970312 344.77545762 C4.44364159 344.79005857 6.83655489 344.77617274 9.23048592 344.76241016 C10.96380958 344.76701906 12.69712933 344.7733719 14.4304409 344.78131914 C19.19406835 344.79803719 23.95737579 344.78975484 28.72100449 344.77737427 C33.8580983 344.76833624 38.9951365 344.78228731 44.13221931 344.79329395 C54.19598868 344.81109708 64.25963883 344.80723119 74.3234129 344.79564339 C82.50114675 344.7866164 90.67884715 344.78538189 98.85658455 344.78973866 C100.60124421 344.79065805 100.60124421 344.79065805 102.38114953 344.79159603 C104.74384595 344.7928749 107.10654236 344.79417176 109.46923876 344.79548639 C131.63355199 344.80689745 153.79779908 344.79377023 175.96210146 344.77228492 C194.98746847 344.75441348 214.01273786 344.75751744 233.0381031 344.77595997 C255.12213817 344.79735738 277.20611524 344.80579876 299.29015923 344.79351091 C301.64425086 344.79223669 303.99834251 344.79097921 306.35243416 344.78973866 C307.51074627 344.78912155 308.66905838 344.78850445 309.86247087 344.78786865 C318.03207238 344.78441236 326.20163716 344.7902501 334.37123299 344.79965687 C344.32483309 344.81086568 354.27830698 344.80786031 364.23189259 344.78653389 C369.31211673 344.77600846 374.39213031 344.77192711 379.47235298 344.7851305 C384.12083759 344.79702926 388.76891601 344.79053345 393.41736364 344.76922029 C395.10099049 344.76474354 396.78465149 344.76704449 398.46825647 344.77672344 C400.75389026 344.78885782 403.03812617 344.77644407 405.3236866 344.75784016 C406.59401615 344.75719075 407.8643457 344.75654134 409.17317009 344.75587225 C414.22932199 344.01705354 417.40977507 341.84673083 420.45569992 337.78734303 C422.19205562 332.44762843 422.01678227 327.30952965 421.98546028 321.72859669 C421.99014025 320.4536352 421.99482023 319.17867371 421.99964201 317.86507702 C422.01215604 314.33284493 422.00597991 310.80085627 421.99668336 307.26862335 C421.98989482 303.45670078 422.00037312 299.64482003 422.00862312 295.83290577 C422.02196475 288.36800014 422.01908082 280.90318499 422.0103852 273.43827581 C422.00361075 267.3715287 422.0026909 261.30480695 422.00595665 255.23805714 C422.00641635 254.37468971 422.00687605 253.51132228 422.00734968 252.6217922 C422.00830885 250.86789178 422.00928149 249.11399137 422.01026745 247.36009097 C422.0188226 230.91277727 422.00898525 214.46551374 421.99286635 198.01820827 C421.97946306 183.90488163 421.98179111 169.79162902 421.99562263 155.67830372 C422.01167624 139.2899456 422.01799862 122.90163145 422.00878584 106.51326656 C422.00783019 104.76580907 422.00688708 103.01835156 422.00595665 101.27089405 C422.00526241 99.98121174 422.00526241 99.98121174 422.00455415 98.66547525 C422.0019636 92.60583686 422.00633665 86.54622636 422.01339531 80.48659229 C422.02180806 73.10216925 422.01953492 65.71784189 422.00355308 58.33342981 C421.99566731 54.56559547 421.9925839 50.79792065 422.00250053 47.03008747 C422.01308515 42.94670417 422.00044901 38.8637239 421.98546028 34.7803545 C421.99215245 33.5879484 421.99884461 32.3955423 422.00573957 31.16700268 C422.03253513 23.23590625 422.03253513 23.23590625 418.60450935 16.25447559 C414.07497829 12.64069563 411.08205652 11.75405479 405.3236866 11.75111103 C404.60944417 11.74529727 403.89520173 11.7394835 403.15931559 11.73349357 C400.76537712 11.71889262 398.37246382 11.73277845 395.97853279 11.74654102 C394.24520913 11.74193213 392.51188937 11.73557929 390.7785778 11.72763205 C386.01495035 11.71091399 381.25164291 11.71919635 376.48801422 11.73157692 C371.35092041 11.74061494 366.21388221 11.72666388 361.07679939 11.71565723 C351.01303003 11.6978541 340.94937988 11.70172 330.88560581 11.7133078 C322.70787196 11.72233478 314.53017156 11.7235693 306.35243416 11.71921253 C305.18932771 11.7185996 304.02622127 11.71798667 302.82786918 11.71735516 C300.46517276 11.71607628 298.10247635 11.71477943 295.73977995 11.7134648 C273.57546672 11.70205374 251.41121963 11.71518096 229.24691725 11.73666626 C210.22155024 11.7545377 191.19628085 11.75143375 172.1709156 11.73299122 C150.08688054 11.7115938 128.00290346 11.70315243 105.91885948 11.71544027 C103.56476785 11.71671449 101.2106762 11.71797198 98.85658455 11.71921253 C97.69827244 11.71982963 96.53996032 11.72044674 95.34654784 11.72108254 C87.17694633 11.72453882 79.00738155 11.71870109 70.83778572 11.70929432 C60.88418562 11.69808551 50.93071173 11.70109087 40.97712612 11.72241729 C35.89690198 11.73294272 30.8168884 11.73702408 25.73666573 11.72382069 C21.08818111 11.71192193 16.4401027 11.71841773 11.79165506 11.73973089 C10.10802821 11.74420765 8.42436721 11.74190669 6.74076223 11.73222774 C4.45512844 11.72009337 2.17089253 11.73250711 -0.11466789 11.75111103 C-2.02016222 11.75208514 -2.02016222 11.75208514 -3.96415138 11.75307894 C-9.02030328 12.49189765 -12.20075636 14.66222036 -15.24668121 18.72160816 Z M166.60450935 356.25447559 C166.60450935 366.48447559 166.60450935 376.71447559 166.60450935 387.25447559 C190.36450935 387.25447559 214.12450935 387.25447559 238.60450935 387.25447559 C238.60450935 377.02447559 238.60450935 366.79447559 238.60450935 356.25447559 C214.84450935 356.25447559 191.08450935 356.25447559 166.60450935 356.25447559 Z M111.1006031 414.10603809 C109.31764008 416.39509025 109.31764008 416.39509025 108.60450935 420.25447559 C170.64450935 420.25447559 232.68450935 420.25447559 296.60450935 420.25447559 C292.45466742 409.87987075 285.58142533 405.19055906 275.8740406 400.56697559 C271.22491074 398.70065823 267.12592924 398.12980904 262.1352253 398.1140337 C260.50583267 398.10546848 260.50583267 398.10546848 258.84352303 398.09673023 C257.66161385 398.09561237 256.47970467 398.09449451 255.26198006 398.09334278 C254.00934868 398.08837788 252.7567173 398.08341297 251.4661274 398.07829762 C248.03609378 398.06620997 244.60612096 398.05873609 241.17607331 398.05428696 C239.02932873 398.05134928 236.8825894 398.04724313 234.73584747 398.04278278 C228.00825092 398.02911681 221.28066648 398.01944633 214.55305701 398.01558089 C206.80761084 398.01110527 199.06234159 397.99357676 191.31694919 397.9645803 C185.31673811 397.9429033 179.31657658 397.93287338 173.3163268 397.93153977 C169.73896639 397.93049584 166.16177249 397.9246767 162.58445358 397.90672016 C158.58753185 397.88704702 154.59097628 397.8915523 150.59401131 397.89803028 C148.83632927 397.88420811 148.83632927 397.88420811 147.0431385 397.8701067 C132.17484803 397.94535818 120.91490801 402.85019545 111.1006031 414.10603809 Z " fill="#000000" transform="translate(53.395490646362305,39.745524406433105)"/>
<path d="M0 0 C23.73138099 22.35382529 35.75941572 51.71136634 37.6484375 83.9453125 C38.35695369 114.53654089 27.36340322 144.33636486 6.48046875 166.7109375 C5.8153125 167.40445313 5.15015625 168.09796875 4.46484375 168.8125 C3.66046875 169.658125 2.85609375 170.50375 2.02734375 171.375 C1.18171875 172.179375 0.33609375 172.98375 -0.53515625 173.8125 C-1.1590625 174.44285156 -1.78296875 175.07320312 -2.42578125 175.72265625 C-23.38794028 195.93616674 -52.53104732 205.34496808 -81.22265625 206.125 C-114.34502174 205.48440818 -145.015088 192.71685518 -168.28515625 169.03125 C-189.51774647 145.83267921 -201.08933534 115.6417972 -200.68359375 84.15625 C-199.30550523 53.11299279 -187.84247032 26.41004935 -166.53515625 3.8125 C-165.87257812 3.07386719 -165.21 2.33523437 -164.52734375 1.57421875 C-121.16982929 -44.8331589 -44.90137686 -40.99104674 0 0 Z M-100.75 -8.83203125 C-107.05385932 0.50650871 -116.53515625 15.1814718 -116.53515625 26.8125 C-107.244752 28.8792638 -98.01429375 29.46611642 -88.53515625 29.8125 C-87.43816406 29.85503906 -86.34117187 29.89757812 -85.2109375 29.94140625 C-77.22049639 30.08883136 -69.31029141 29.4962345 -61.34765625 28.875 C-60.23519531 28.78822998 -59.12273437 28.70145996 -57.9765625 28.61206055 C-56.92984375 28.52480713 -55.883125 28.43755371 -54.8046875 28.34765625 C-53.86214111 28.269104 -52.91959473 28.19055176 -51.94848633 28.10961914 C-49.39652151 27.87625251 -49.39652151 27.87625251 -46.53515625 26.8125 C-49.64005613 10.93111555 -57.77732454 -7.42915021 -71.41015625 -16.75 C-82.77567734 -23.73959747 -92.77817181 -18.6884524 -100.75 -8.83203125 Z M-151.53515625 5.8125 C-152.3240625 6.45703125 -153.11296875 7.1015625 -153.92578125 7.765625 C-155.03179687 8.68601562 -155.03179687 8.68601562 -156.16015625 9.625 C-156.81242187 10.16769531 -157.4646875 10.71039063 -158.13671875 11.26953125 C-159.87093206 12.83591261 -159.87093206 12.83591261 -159.53515625 15.8125 C-143.84030885 21.50206607 -143.84030885 21.50206607 -127.53515625 24.8125 C-127.19484375 23.69875 -126.85453125 22.585 -126.50390625 21.4375 C-122.28488815 8.01510102 -116.55881513 -4.02876606 -109.53515625 -16.1875 C-123.92755405 -16.1875 -141.27619819 -3.03142936 -151.53515625 5.8125 Z M-53.53515625 -16.1875 C-53.17164063 -15.53265625 -52.808125 -14.8778125 -52.43359375 -14.203125 C-50.78327435 -11.20716055 -49.15744287 -8.19873064 -47.53515625 -5.1875 C-47.03242188 -4.27355469 -46.5296875 -3.35960937 -46.01171875 -2.41796875 C-41.40403403 6.29762537 -38.47300646 15.43638231 -35.53515625 24.8125 C-24.42712217 23.36714807 -14.06611525 19.48169084 -3.53515625 15.8125 C-5.34958686 7.09460374 -16.54165481 1.10938913 -23.63964844 -3.57861328 C-32.86781371 -9.4660253 -42.63647688 -14.46665589 -53.53515625 -16.1875 Z M-168.53515625 24.8125 C-177.31554889 34.04929918 -182.15206736 47.40594505 -185.41015625 59.5 C-185.71493896 60.62039673 -185.71493896 60.62039673 -186.02587891 61.76342773 C-187.6516627 68.24474503 -187.96190725 73.93351203 -188.53515625 80.8125 C-171.04515625 80.8125 -153.55515625 80.8125 -135.53515625 80.8125 C-134.63419972 71.24131618 -134.63419972 71.24131618 -133.74072266 61.66943359 C-132.91366464 53.00528793 -131.85148444 44.41848134 -130.53515625 35.8125 C-131.13352295 35.65692627 -131.73188965 35.50135254 -132.34838867 35.34106445 C-153.26912124 29.86627369 -153.26912124 29.86627369 -163.171875 25.6953125 C-165.58307861 24.63753232 -165.58307861 24.63753232 -168.53515625 24.8125 Z M-4.53515625 27.5 C-13.66769908 31.06459635 -23.02662157 33.47670779 -32.53515625 35.8125 C-32.45475098 36.35849854 -32.3743457 36.90449707 -32.29150391 37.46704102 C-31.90759754 40.10208453 -31.53397394 42.73850698 -31.16015625 45.375 C-31.03382813 46.23158203 -30.9075 47.08816406 -30.77734375 47.97070312 C-29.24245417 58.9067914 -28.49660554 69.75583316 -27.53515625 80.8125 C-10.04515625 80.8125 7.44484375 80.8125 25.46484375 80.8125 C24.58102394 70.02837165 24.58102394 70.02837165 22.40234375 59.625 C22.18827881 58.82473389 21.97421387 58.02446777 21.75366211 57.19995117 C18.50543068 45.73354756 13.58838867 33.69172351 5.46484375 24.8125 C1.72412513 24.8125 -1.1228936 26.12962338 -4.53515625 27.5 Z M-119.53515625 37.8125 C-122.43079482 52.65492413 -123.53515625 65.30443138 -123.53515625 80.8125 C-95.81515625 80.8125 -68.09515625 80.8125 -39.53515625 80.8125 C-39.48775426 66.26051605 -39.48775426 66.26051605 -40.91015625 52 C-41.03648437 51.06091797 -41.1628125 50.12183594 -41.29296875 49.15429688 C-41.89270021 44.95317802 -42.46256089 41.5605947 -44.53515625 37.8125 C-45.96601563 38.0290625 -45.96601563 38.0290625 -47.42578125 38.25 C-70.97565268 41.4257715 -96.02416198 41.1205796 -119.53515625 37.8125 Z M-188.53515625 92.8125 C-187.65098003 103.59668324 -187.65098003 103.59668324 -185.47265625 114 C-185.25931641 114.80026611 -185.04597656 115.60053223 -184.82617188 116.42504883 C-181.5693098 127.94994065 -176.27242188 138.91714111 -169.53515625 148.8125 C-162.97852869 148.01185571 -156.96543807 145.67503173 -150.76171875 143.515625 C-144.09869977 141.23617114 -137.38850795 139.42847646 -130.53515625 137.8125 C-130.70905884 136.40726074 -130.70905884 136.40726074 -130.88647461 134.97363281 C-131.32259989 131.44016803 -131.7565869 127.90645336 -132.18920898 124.37255859 C-132.37555024 122.85390144 -132.56270098 121.33534335 -132.75073242 119.81689453 C-133.02354465 117.61257174 -133.29327408 115.40788836 -133.5625 113.203125 C-133.64483383 112.54322571 -133.72716766 111.88332642 -133.81199646 111.20343018 C-134.5551927 105.07469224 -135.02110687 98.98109256 -135.53515625 92.8125 C-153.02515625 92.8125 -170.51515625 92.8125 -188.53515625 92.8125 Z M-123.53515625 92.8125 C-123.64408538 107.68722567 -123.64408538 107.68722567 -122.09765625 122.1875 C-121.96294922 123.074375 -121.82824219 123.96125 -121.68945312 124.875 C-121.1169797 128.57234057 -120.48419952 132.19129877 -119.53515625 135.8125 C-118.41367188 135.668125 -117.2921875 135.52375 -116.13671875 135.375 C-92.15535722 132.56249475 -67.47748976 132.73026856 -43.53515625 135.8125 C-40.63951768 120.97007587 -39.53515625 108.32056862 -39.53515625 92.8125 C-67.25515625 92.8125 -94.97515625 92.8125 -123.53515625 92.8125 Z M-27.53515625 92.8125 C-28.43611278 102.38368382 -28.43611278 102.38368382 -29.32958984 111.95556641 C-30.15664786 120.61971207 -31.21882806 129.20651866 -32.53515625 137.8125 C-31.93678955 137.96807373 -31.33842285 138.12364746 -30.72192383 138.28393555 C-9.63516711 143.80217352 -9.63516711 143.80217352 0.00390625 148.02734375 C2.74418487 148.90162312 3.86863455 149.0196546 6.46484375 147.8125 C14.71286649 139.10011136 19.28235874 125.50216439 22.33984375 114.125 C22.54295166 113.37814941 22.74605957 112.63129883 22.95532227 111.86181641 C24.58162013 105.38055146 24.89159565 99.69147714 25.46484375 92.8125 C7.97484375 92.8125 -9.51515625 92.8125 -27.53515625 92.8125 Z M-116.53515625 146.8125 C-112.5842095 163.79463954 -105.27998493 181.48847274 -90.53515625 191.8125 C-85.53747978 194.15708896 -80.78853199 194.8493583 -75.48828125 193.16015625 C-61.55021362 186.86641641 -55.15748421 172.11879976 -50.03515625 158.625 C-47.57615984 152.86895472 -47.57615984 152.86895472 -46.53515625 146.8125 C-54.71624859 145.26529386 -62.71654259 144.39597079 -71.03515625 144.125 C-72.15937988 144.08592529 -73.28360352 144.04685059 -74.44189453 144.0065918 C-88.577454 143.59484729 -102.6490379 143.90544677 -116.53515625 146.8125 Z M-35.53515625 148.8125 C-35.87546875 149.92625 -36.21578125 151.04 -36.56640625 152.1875 C-40.78542435 165.60989898 -46.51149737 177.65376606 -53.53515625 189.8125 C-46.93360597 188.55537527 -41.26818875 186.6640113 -35.22265625 183.75 C-34.39378906 183.35224365 -33.56492187 182.9544873 -32.7109375 182.54467773 C-21.13810178 176.82247829 -11.86727648 168.61188108 -2.53515625 159.8125 C-3.88003837 157.12273576 -5.02379579 157.10151265 -7.83984375 156.15625 C-8.72905518 155.85662354 -9.6182666 155.55699707 -10.53442383 155.24829102 C-11.48341553 154.93947998 -12.43240723 154.63066895 -13.41015625 154.3125 C-14.36365967 153.99788818 -15.31716309 153.68327637 -16.29956055 153.35913086 C-22.63683452 151.31152107 -28.89934801 149.57398619 -35.53515625 148.8125 Z M-140.66015625 151.5625 C-142.02914062 151.94148437 -142.02914062 151.94148437 -143.42578125 152.328125 C-149.38177896 154.02499044 -154.95112151 156.13477574 -160.53515625 158.8125 C-149.79149679 173.03204929 -130.14105792 186.17647447 -112.53515625 189.8125 C-111.54515625 189.4825 -110.55515625 189.1525 -109.53515625 188.8125 C-110.01984375 188.10609375 -110.50453125 187.3996875 -111.00390625 186.671875 C-118.59283619 175.05497456 -123.95768512 162.21898273 -127.53515625 148.8125 C-132.1235266 148.8125 -136.27020804 150.30477379 -140.66015625 151.5625 Z " fill="#000000" transform="translate(337.53515625,131.1875)"/>
<path d="M0 0 C0.67115872 -0.00436032 1.34231745 -0.00872064 2.03381431 -0.0132131 C4.29908643 -0.02422458 6.56375686 -0.01372047 8.82902527 -0.00342751 C10.46290049 -0.00688175 12.09677338 -0.01164475 13.73064137 -0.01760924 C18.23315765 -0.03018095 22.7354842 -0.02392095 27.23800135 -0.01465058 C32.08878041 -0.00788558 36.93952597 -0.01832861 41.79029846 -0.02659035 C51.29799179 -0.03995721 60.80561423 -0.03703682 70.31331038 -0.02835242 C78.03776238 -0.02158788 85.76219445 -0.02065382 93.48664856 -0.02392387 C94.58441897 -0.02438357 95.68218938 -0.02484327 96.81322557 -0.0253169 C99.04305578 -0.02627604 101.27288598 -0.02724868 103.50271618 -0.02823468 C124.4308082 -0.03679722 145.35886085 -0.02694089 166.28694642 -0.01083358 C184.25924438 0.00257038 202.23148422 0.00024253 220.20378113 -0.01358986 C241.05501482 -0.02963042 261.90621397 -0.03597317 282.75745296 -0.02675307 C284.97925758 -0.02579738 287.2010622 -0.02485427 289.42286682 -0.02392387 C291.06278767 -0.02322963 291.06278767 -0.02322963 292.73583823 -0.02252137 C300.45445985 -0.0199269 308.17305962 -0.02431229 315.89167786 -0.03136253 C325.29315667 -0.03976083 334.69456031 -0.03753269 344.09603047 -0.0215203 C348.89634672 -0.01361501 353.69653745 -0.01058424 358.49685287 -0.02046776 C362.88618151 -0.02936865 367.27526758 -0.02455842 371.66457403 -0.0085351 C373.2573915 -0.00516766 374.85022922 -0.00692506 376.44303381 -0.01416247 C378.59882406 -0.023211 380.75377015 -0.01400525 382.90951538 0 C384.70979832 0.00073059 384.70979832 0.00073059 386.54645061 0.00147593 C389.45475769 0.37752342 389.45475769 0.37752342 391.3404147 1.59550607 C392.81018745 3.94591394 392.82966126 5.49849558 392.8294878 8.26732445 C392.83669434 9.28163221 392.84390089 10.29593998 392.85132581 11.34098434 C392.84395153 12.45857447 392.83657724 13.57616459 392.82897949 14.72762108 C392.8329539 15.91229784 392.8369283 17.0969746 392.84102315 18.31755066 C392.84900079 21.61162368 392.8434644 24.90517901 392.83227265 28.19921017 C392.82344891 31.74936239 392.83186885 35.29947854 392.83813477 38.84963036 C392.84763551 45.80661046 392.8410118 52.76348703 392.82887182 59.72045946 C392.8152682 67.81702625 392.81688823 75.91356821 392.81900515 84.01014352 C392.8221969 98.45358832 392.81051668 112.89698385 392.79093933 127.34041405 C392.77193438 141.3651689 392.76485155 155.38986599 392.77043152 169.4146328 C392.77648537 184.67566836 392.77631948 199.9366785 392.76494569 215.19771194 C392.76373836 216.82411639 392.76253237 218.45052083 392.76132774 220.07692528 C392.76042244 221.27735259 392.76042244 221.27735259 392.75949884 222.50203097 C392.75561476 228.1497607 392.75601521 233.79748099 392.75791359 239.44521141 C392.76003278 246.32509537 392.75483245 253.20492867 392.74030004 260.08479834 C392.73304199 263.59702552 392.72899097 267.10917881 392.7335434 270.62141228 C392.73835171 274.42346669 392.72773161 278.22538596 392.7154541 282.02742577 C392.71923343 283.14501589 392.72301275 284.26260601 392.7269066 285.4140625 C392.7210744 286.42837027 392.71524221 287.44267803 392.70923328 288.4877224 C392.70836651 289.36590818 392.70749973 290.24409397 392.70660669 291.14889145 C392.45475769 293.37752342 392.45475769 293.37752342 390.45475769 296.37752342 C387.65667439 296.75357091 387.65667439 296.75357091 383.99853516 296.75504684 C383.32485393 296.75940717 382.65117271 296.76376749 381.95707691 296.76825994 C379.67721441 296.77929479 377.39794684 296.76875659 375.11808777 296.75847435 C373.47611332 296.76192768 371.83414119 296.76669005 370.19217396 296.77265608 C365.66266503 296.78524045 361.13334445 296.77896213 356.60383463 296.76969743 C351.72579036 296.76293754 346.84777954 296.77337289 341.96974182 296.78163719 C332.40676747 296.79500957 322.84386357 296.79208123 313.28088641 296.78339927 C305.51206555 296.77663687 297.74326449 296.77569973 289.97444153 296.77897072 C288.87069618 296.77943042 287.76695083 296.77989012 286.62975866 296.78036375 C284.38784718 296.78132288 282.14593571 296.78229552 279.90402424 296.78328152 C258.85865135 296.79184568 237.8133176 296.78198521 216.76795113 296.76588042 C198.69185402 296.75247632 180.6158147 296.75480412 162.53971863 296.7686367 C141.57203945 296.78467443 120.60439462 296.79102161 99.63671017 296.78179991 C97.4028314 296.78084422 95.16895263 296.77990111 92.93507385 296.77897072 C91.83582937 296.77850789 90.73658488 296.77804507 89.60402995 296.77756821 C81.84036647 296.77497289 74.07672469 296.77936097 66.31306458 296.78640938 C56.85773431 296.79480453 47.4024788 296.79258621 37.94715714 296.77656715 C33.11861825 296.76865758 28.29020421 296.76563826 23.46166611 296.7755146 C19.047678 296.78440678 14.63393132 296.77961995 10.21996534 296.76358195 C8.61704161 296.76021075 7.01409778 296.76198013 5.41118681 296.76920931 C3.24415495 296.7782384 1.07796683 296.76907241 -1.08901978 296.75504684 C-2.89979869 296.75431626 -2.89979869 296.75431626 -4.747159 296.75357091 C-5.67052649 296.62947524 -6.59389399 296.50537957 -7.54524231 296.37752342 C-9.7124933 293.12664693 -9.79601251 292.24189058 -9.7997179 288.4877224 C-9.8055501 287.47341463 -9.81138229 286.45910686 -9.81739122 285.4140625 C-9.81172223 283.73767732 -9.81172223 283.73767732 -9.80593872 282.02742577 C-9.80976427 280.842749 -9.81358981 279.65807224 -9.81753129 278.43749619 C-9.8260843 275.14353349 -9.8256202 271.84979321 -9.82135069 268.55583668 C-9.81889016 265.00568455 -9.82788919 261.45555898 -9.83538818 257.90541649 C-9.84815556 250.94846385 -9.84992638 243.99154977 -9.84758792 237.03458738 C-9.84580703 231.38202897 -9.84754946 225.72948229 -9.85181236 220.07692528 C-9.85240755 219.27334316 -9.85300274 218.46976104 -9.85361597 217.64182794 C-9.85482768 216.00951973 -9.85604181 214.37721153 -9.85725834 212.74490333 C-9.86814154 197.42794275 -9.86596758 182.11100417 -9.8598735 166.79404235 C-9.85470246 152.77033617 -9.8659633 138.74669941 -9.88497172 124.72300696 C-9.9043257 110.33444302 -9.91261049 95.94591196 -9.90884846 81.5573349 C-9.90693285 73.47481184 -9.90945895 65.3923479 -9.923563 57.30983543 C-9.93544669 50.4299417 -9.93691566 43.55014348 -9.92477284 36.67024851 C-9.9188631 33.15798174 -9.91784205 29.64588992 -9.92977524 26.13363457 C-9.94254343 22.33154225 -9.93221956 18.52971827 -9.91946411 14.72762108 C-9.9268384 13.61003096 -9.93421268 12.49244083 -9.94181043 11.34098434 C-9.93460389 10.32667658 -9.92739734 9.31236881 -9.91997242 8.26732445 C-9.92002744 7.38913866 -9.92008245 6.51095287 -9.92013913 5.6061554 C-9.54524231 3.37752342 -9.54524231 3.37752342 -8.43089932 1.59550607 C-5.61697948 -0.22205965 -3.33211262 0.00135223 0 0 Z M2.45475769 11.37752342 C2.45475769 101.79752342 2.45475769 192.21752342 2.45475769 285.37752342 C127.19475769 285.37752342 251.93475769 285.37752342 380.45475769 285.37752342 C380.45475769 194.95752342 380.45475769 104.53752342 380.45475769 11.37752342 C255.71475769 11.37752342 130.97475769 11.37752342 2.45475769 11.37752342 Z " fill="#000000" transform="translate(64.54524230957031,69.62247657775879)"/>
</svg>
