<svg width="7" height="10" viewBox="0 0 7 10" fill="none" xmlns="http://www.w3.org/2000/svg">
<path d="M6.32222 0.342518C6.45116 0.471456 6.51562 0.624118 6.51562 0.800505C6.51562 0.976548 6.45116 1.12904 6.32222 1.25798L2.54434 5.03585L6.33511 8.82662C6.45545 8.94696 6.51562 9.09739 6.51562 9.2779C6.51562 9.45842 6.45116 9.61314 6.32222 9.74208C6.19328 9.87102 6.04062 9.93549 5.86423 9.93549C5.68819 9.93549 5.5357 9.87102 5.40676 9.74208L1.07445 5.39688C1.02288 5.3453 0.98626 5.28943 0.964598 5.22926C0.94328 5.16909 0.932621 5.10462 0.932621 5.03585C0.932621 4.96709 0.94328 4.90262 0.964598 4.84245C0.98626 4.78227 1.02288 4.7264 1.07445 4.67483L5.41965 0.329624C5.54 0.209283 5.68819 0.149111 5.86423 0.149111C6.04062 0.149111 6.19328 0.21358 6.32222 0.342518Z" fill="#880909"/>
</svg>
