<svg width="20" height="21" viewBox="0 0 20 21" fill="none" xmlns="http://www.w3.org/2000/svg">
<path d="M3.17448 12.4158C3.20885 12.416 3.24323 12.4162 3.27865 12.4163C3.38806 12.4169 3.49745 12.4183 3.60686 12.4198C3.6812 12.4203 3.75554 12.4208 3.82988 12.4213C4.01178 12.4225 4.19366 12.4244 4.37555 12.4267C4.19989 13.0896 4.01465 13.7493 3.82284 14.4077C3.78516 14.5371 3.74751 14.6665 3.70996 14.7959C3.68692 14.8753 3.6638 14.9547 3.64061 15.0341C3.62513 15.0874 3.62513 15.0874 3.60935 15.1418C3.60031 15.1728 3.59128 15.2038 3.58197 15.2358C3.4446 15.7489 3.51695 16.2127 3.77175 16.6742C4.00333 17.0355 4.37074 17.263 4.78427 17.3686C5.07569 17.4117 5.36612 17.4113 5.65999 17.412C5.75133 17.4123 5.84265 17.4129 5.93399 17.4136C6.19347 17.4155 6.45294 17.4173 6.71243 17.4179C6.87183 17.4182 7.03122 17.4193 7.19062 17.4209C7.25072 17.4213 7.31083 17.4215 7.37093 17.4215C8.12302 17.4207 8.74297 17.62 9.33696 18.0933C9.65408 18.3455 10.0506 18.513 10.4647 18.4941C10.8824 18.4372 11.1882 18.3043 11.5143 18.0444C12.1167 17.5679 12.7536 17.4204 13.5038 17.4229C13.5653 17.4225 13.6267 17.4221 13.6882 17.4216C13.8484 17.4204 14.0085 17.42 14.1687 17.4198C14.4253 17.4195 14.6819 17.4182 14.9385 17.4164C15.0272 17.4159 15.1158 17.416 15.2045 17.416C15.7961 17.4145 16.3152 17.3453 16.786 16.9599C17.083 16.6599 17.2663 16.2435 17.2876 15.8219C17.2838 15.5598 17.2283 15.3286 17.1574 15.0769C17.1401 15.0141 17.1401 15.0141 17.1225 14.9501C17.085 14.8148 17.0471 14.6797 17.0089 14.5447C16.9962 14.4997 16.9835 14.4547 16.9704 14.4083C16.8797 14.0874 16.7877 13.7668 16.6954 13.4462C16.6547 13.3047 16.6141 13.1631 16.5734 13.0216C16.5485 12.9346 16.5235 12.8475 16.4984 12.7606C16.4873 12.722 16.4763 12.6835 16.4649 12.6438C16.4551 12.6098 16.4453 12.5758 16.4352 12.5408C16.4144 12.4639 16.4144 12.4639 16.4144 12.4267C16.6326 12.423 16.8507 12.4203 17.0689 12.4186C17.1431 12.4178 17.2173 12.4168 17.2914 12.4155C17.3982 12.4137 17.505 12.4129 17.6119 12.4122C17.6613 12.4111 17.6613 12.4111 17.7118 12.4099C17.9161 12.4098 18.0426 12.4296 18.198 12.5753C18.3487 12.8352 18.4248 13.1133 18.5067 13.4007C18.5221 13.4538 18.5375 13.5069 18.5529 13.5601C18.5945 13.7036 18.6357 13.8473 18.6768 13.991C18.7025 14.081 18.7284 14.1709 18.7542 14.2609C18.8446 14.5752 18.9347 14.8897 19.0245 15.2042C19.108 15.4965 19.1921 15.7885 19.2766 16.0805C19.3493 16.332 19.4215 16.5836 19.4934 16.8353C19.5362 16.9853 19.5792 17.1353 19.6227 17.2851C19.6636 17.4261 19.7039 17.5672 19.7438 17.7085C19.7585 17.76 19.7733 17.8115 19.7884 17.8629C19.9998 18.585 19.9998 18.585 19.8445 18.9129C19.7236 19.0404 19.6302 19.1082 19.4531 19.1291C19.4075 19.1291 19.362 19.1292 19.315 19.1293C19.2895 19.1295 19.264 19.1297 19.2378 19.1299C19.1526 19.1304 19.0675 19.1301 18.9823 19.1299C18.9211 19.1301 18.86 19.1303 18.7988 19.1307C18.6671 19.1312 18.5355 19.1314 18.4038 19.1314C18.1953 19.1313 17.9868 19.132 17.7783 19.1329C17.3729 19.1344 16.9675 19.1351 16.5621 19.1357C16.0471 19.1365 15.5321 19.1378 15.017 19.1397C14.8101 19.1404 14.6032 19.1408 14.3963 19.1408C14.267 19.1409 14.1377 19.1413 14.0084 19.1418C13.9489 19.142 13.8893 19.142 13.8298 19.1419C13.2622 19.141 12.7374 19.1619 12.2993 19.5678C12.1705 19.7055 12.0777 19.864 11.9843 20.0271C11.9074 20.1335 11.8507 20.1725 11.7326 20.2297C11.6102 20.2441 11.6102 20.2441 11.4695 20.2447C11.4309 20.2451 11.4309 20.2451 11.3914 20.2455C11.3066 20.2462 11.2219 20.246 11.1371 20.2458C11.0779 20.246 11.0187 20.2462 10.9596 20.2464C10.8357 20.2467 10.7118 20.2466 10.5879 20.2463C10.4294 20.2458 10.2709 20.2466 10.1125 20.2477C9.99028 20.2484 9.8681 20.2483 9.74591 20.2481C9.6875 20.2481 9.62909 20.2483 9.57068 20.2488C9.48886 20.2494 9.40709 20.249 9.32528 20.2483C9.2788 20.2483 9.23233 20.2483 9.18445 20.2483C9.03308 20.2261 8.95309 20.1759 8.83439 20.0811C8.76748 19.9876 8.76748 19.9876 8.71131 19.886C8.4888 19.5216 8.20463 19.3103 7.79399 19.1893C7.60231 19.1611 7.41817 19.1475 7.22409 19.1473C7.19835 19.1472 7.17262 19.1471 7.1461 19.147C7.06076 19.1468 6.97542 19.1468 6.89009 19.1469C6.82854 19.1468 6.76699 19.1466 6.70544 19.1465C6.57335 19.1462 6.44127 19.146 6.30918 19.1459C6.10025 19.1456 5.89133 19.145 5.68241 19.1443C5.61077 19.1441 5.53913 19.1439 5.4675 19.1436C5.43164 19.1435 5.39578 19.1434 5.35883 19.1433C4.87276 19.1417 4.38668 19.1405 3.9006 19.14C3.57223 19.1397 3.24386 19.1389 2.91549 19.1374C2.74187 19.1367 2.56826 19.1363 2.39463 19.1364C2.23146 19.1366 2.0683 19.1361 1.90513 19.1351C1.84531 19.1348 1.78548 19.1348 1.72566 19.1351C1.64389 19.1354 1.56217 19.1348 1.48041 19.134C1.41183 19.1339 1.41183 19.1339 1.34187 19.1337C1.1533 19.1054 1.04077 19.0271 0.925591 18.8766C0.771488 18.5307 0.926804 18.1178 1.0271 17.776C1.04265 17.7214 1.05815 17.6668 1.0736 17.6121C1.11537 17.465 1.15787 17.3182 1.20053 17.1714C1.24522 17.0171 1.2893 16.8628 1.33347 16.7084C1.40766 16.4495 1.48231 16.1907 1.55726 15.932C1.64379 15.6333 1.72963 15.3344 1.81509 15.0354C1.89753 14.747 1.98041 14.4587 2.06352 14.1705C2.09879 14.0481 2.13392 13.9257 2.16893 13.8033C2.21017 13.6592 2.2518 13.5151 2.29373 13.3712C2.30902 13.3185 2.32418 13.2658 2.3392 13.213C2.35977 13.1407 2.38088 13.0686 2.40201 12.9965C2.41366 12.9562 2.4253 12.9159 2.4373 12.8744C2.49859 12.7139 2.57855 12.582 2.70888 12.4692C2.86451 12.4069 3.00842 12.413 3.17448 12.4158Z" fill="#880909"/>
<path d="M6.39801 10.742C6.43742 10.742 6.47683 10.742 6.51744 10.742C6.55956 10.7426 6.60168 10.7432 6.64507 10.7437C6.68852 10.7439 6.73197 10.7441 6.77673 10.7442C6.9153 10.7448 7.05385 10.7462 7.19241 10.7477C7.28644 10.7482 7.38047 10.7487 7.4745 10.7492C7.70483 10.7504 7.93514 10.7523 8.16546 10.7546C8.16576 10.796 8.16606 10.8373 8.16637 10.8798C8.16925 11.2696 8.17251 11.6594 8.17614 12.0492C8.178 12.2496 8.17972 12.45 8.18114 12.6504C8.18251 12.8438 8.18423 13.0373 8.1862 13.2308C8.18688 13.3045 8.18745 13.3782 8.18788 13.4519C8.18851 13.5554 8.18959 13.6588 8.19077 13.7623C8.19085 13.7926 8.19093 13.8229 8.19101 13.8542C8.19431 14.0805 8.21499 14.2792 8.35821 14.4634C8.56814 14.6266 8.80038 14.6299 9.0552 14.6286C9.10355 14.6288 9.10355 14.6288 9.15288 14.629C9.25879 14.6293 9.36469 14.6291 9.4706 14.6288C9.54458 14.6289 9.61856 14.629 9.69254 14.629C9.84733 14.6292 10.0021 14.629 10.1569 14.6287C10.3549 14.6282 10.553 14.6285 10.751 14.6289C10.9037 14.6292 11.0564 14.6291 11.2091 14.6289C11.2821 14.6289 11.3551 14.6289 11.4281 14.6291C11.5302 14.6293 11.6324 14.629 11.7346 14.6286C11.7795 14.6288 11.7795 14.6288 11.8252 14.629C12.0509 14.6274 12.248 14.6061 12.4315 14.4634C12.5953 14.2529 12.5983 14.0179 12.599 13.7623C12.5994 13.7296 12.5997 13.6969 12.6001 13.6633C12.6013 13.5561 12.6019 13.449 12.6025 13.3418C12.6032 13.2672 12.604 13.1926 12.6047 13.118C12.6066 12.9222 12.6081 12.7265 12.6095 12.5307C12.611 12.3307 12.6129 12.1307 12.6147 11.9307C12.6183 11.5387 12.6214 11.1466 12.6243 10.7546C12.9007 10.7509 13.177 10.7483 13.4534 10.7465C13.5474 10.7457 13.6414 10.7447 13.7354 10.7434C13.8706 10.7416 14.0058 10.7408 14.1411 10.7401C14.183 10.7394 14.2249 10.7386 14.2681 10.7378C14.4924 10.7377 14.6474 10.7393 14.8166 10.9033C14.9598 11.1203 15.0275 11.3439 15.098 11.5929C15.1104 11.6355 15.1227 11.678 15.1354 11.7219C15.169 11.838 15.2023 11.9541 15.2354 12.0704C15.2631 12.1677 15.2911 12.265 15.3191 12.3623C15.3851 12.592 15.4507 12.8218 15.5162 13.0517C15.5834 13.2881 15.6513 13.5243 15.7196 13.7604C15.7783 13.9639 15.8366 14.1674 15.8947 14.3711C15.9293 14.4924 15.964 14.6137 15.9991 14.7348C16.0382 14.8701 16.0766 15.0056 16.1149 15.1411C16.1323 15.2005 16.1323 15.2005 16.15 15.2611C16.2267 15.5361 16.2966 15.8152 16.1681 16.082C16.041 16.2225 15.9265 16.3174 15.7359 16.347C15.6704 16.3471 15.6704 16.3471 15.6035 16.3473C15.5792 16.3476 15.5548 16.3478 15.5298 16.3481C15.4498 16.3488 15.3698 16.3485 15.2897 16.3482C15.2333 16.3486 15.1769 16.349 15.1206 16.3495C14.972 16.3507 14.8235 16.3511 14.6749 16.3513C14.4107 16.3516 14.1466 16.3532 13.8824 16.3552C13.8543 16.3554 13.8262 16.3556 13.7972 16.3558C12.6896 16.3651 11.7676 16.5824 10.8647 17.2472C10.6771 17.3828 10.5202 17.4668 10.2834 17.4429C10.086 17.3705 9.93396 17.2579 9.76321 17.1363C8.92217 16.5389 8.02484 16.3617 7.00784 16.3591C6.9233 16.3588 6.83876 16.3582 6.75422 16.3575C6.51426 16.3556 6.27431 16.3538 6.03435 16.3532C5.88658 16.3529 5.73883 16.3518 5.59107 16.3502C5.53515 16.3498 5.47922 16.3496 5.4233 16.3496C5.34525 16.3497 5.26725 16.3489 5.18921 16.3479C5.14495 16.3477 5.1007 16.3474 5.0551 16.3472C4.86371 16.3174 4.7493 16.2231 4.62161 16.082C4.47521 15.7779 4.5845 15.4497 4.67425 15.1417C4.68628 15.099 4.6983 15.0563 4.71069 15.0123C4.7435 14.8962 4.77674 14.7802 4.81022 14.6643C4.84534 14.5424 4.87998 14.4203 4.91469 14.2983C4.97304 14.0935 5.03179 13.8888 5.09078 13.6842C5.15877 13.4483 5.22607 13.2123 5.29301 12.9761C5.3577 12.748 5.42291 12.5201 5.48835 12.2922C5.51607 12.1956 5.54359 12.099 5.57096 12.0023C5.60936 11.8671 5.64835 11.7321 5.68751 11.5971C5.69865 11.5574 5.7098 11.5177 5.72128 11.4768C5.79867 11.2132 5.88211 10.9687 6.10224 10.7926C6.20792 10.7499 6.2842 10.7412 6.39801 10.742Z" fill="#880909"/>
<path d="M10.0838 0.149824C10.1137 0.149613 10.1436 0.149402 10.1744 0.149184C10.2376 0.148926 10.3007 0.148979 10.3638 0.149323C10.4601 0.149665 10.5564 0.148506 10.6527 0.147228C10.7142 0.147163 10.7756 0.147186 10.8371 0.147306C10.8658 0.146854 10.8944 0.146401 10.9239 0.145935C11.1029 0.148434 11.21 0.177659 11.3494 0.328425C11.4557 0.498205 11.4616 0.649231 11.4591 0.855936C11.4591 0.888184 11.4592 0.920432 11.4592 0.953657C11.4591 1.05981 11.4583 1.16594 11.4576 1.2721C11.4574 1.34587 11.4572 1.41964 11.4571 1.49341C11.4568 1.68726 11.4558 1.88109 11.4547 2.07493C11.4537 2.27286 11.4532 2.47079 11.4528 2.66872C11.4517 3.05685 11.45 3.44497 11.4479 3.83309C11.4808 3.83273 11.5137 3.83237 11.5476 3.83201C11.8579 3.82874 12.1681 3.82632 12.4783 3.82474C12.6378 3.8239 12.7973 3.82276 12.9568 3.82093C13.1108 3.81918 13.2647 3.81822 13.4187 3.8178C13.4774 3.8175 13.5361 3.81692 13.5948 3.81605C13.6771 3.81488 13.7594 3.81472 13.8417 3.8148C13.8659 3.81422 13.8901 3.81364 13.915 3.81304C14.0825 3.81468 14.1759 3.86601 14.3054 3.99422C14.429 4.17125 14.4188 4.35483 14.4182 4.57692C14.4183 4.61361 14.4185 4.65031 14.4187 4.68812C14.4189 4.76555 14.4188 4.84299 14.4186 4.92042C14.4183 5.03855 14.4192 5.1566 14.4203 5.27472C14.4203 5.35012 14.4203 5.42552 14.4202 5.50092C14.4208 5.55361 14.4208 5.55361 14.4213 5.60737C14.4193 5.82694 14.3955 5.95825 14.2725 6.12925C13.4647 6.72375 12.39 6.2501 11.4479 6.2501C11.4479 8.65623 11.4479 11.0624 11.4479 13.5414C10.7976 13.5414 10.1473 13.5414 9.47729 13.5414C9.47729 11.1353 9.47729 8.72915 9.47729 6.2501C8.59937 6.2501 7.72144 6.2501 6.81692 6.2501C6.57607 6.05316 6.57607 6.05316 6.52132 5.88755C6.50734 5.76028 6.50673 5.63455 6.50708 5.50627C6.5069 5.46958 6.50673 5.43288 6.50656 5.39507C6.50634 5.31764 6.50639 5.2402 6.50667 5.16277C6.50695 5.04464 6.506 4.92659 6.50496 4.80847C6.50491 4.73307 6.50493 4.65767 6.50502 4.58227C6.50466 4.54714 6.50429 4.51201 6.50391 4.47582C6.50594 4.25625 6.52977 4.12494 6.65269 3.95394C6.79045 3.82457 6.91212 3.81637 7.07977 3.81937C7.10575 3.81935 7.13172 3.81933 7.15848 3.81932C7.24396 3.8194 7.32943 3.82034 7.41491 3.82129C7.47432 3.82151 7.53373 3.82169 7.59315 3.82181C7.74925 3.82227 7.90534 3.82345 8.06144 3.82479C8.22084 3.82603 8.38023 3.82658 8.53963 3.82719C8.85219 3.82848 9.16474 3.83054 9.47729 3.83309C9.477 3.79224 9.47671 3.7514 9.47641 3.70931C9.47374 3.32406 9.47178 2.93881 9.47049 2.55354C9.4698 2.35548 9.46887 2.15743 9.46738 1.95938C9.46595 1.76818 9.46517 1.577 9.46483 1.38579C9.46459 1.31291 9.46411 1.24003 9.4634 1.16715C9.46245 1.06492 9.46232 0.96274 9.46238 0.860509C9.46191 0.83049 9.46143 0.800472 9.46095 0.769543C9.46227 0.562993 9.50338 0.447679 9.60867 0.288141C9.753 0.136584 9.90268 0.149078 10.0838 0.149824Z" fill="#880909"/>
</svg>
