<svg width="20" height="21" viewBox="0 0 20 21" fill="none" xmlns="http://www.w3.org/2000/svg">
<path d="M3.17423 12.4158C3.20861 12.416 3.24298 12.4162 3.2784 12.4163C3.38782 12.4169 3.49721 12.4183 3.60662 12.4198C3.68096 12.4203 3.75529 12.4208 3.82963 12.4213C4.01153 12.4225 4.19341 12.4244 4.3753 12.4267C4.19964 13.0896 4.01441 13.7493 3.82259 14.4077C3.78492 14.5371 3.74727 14.6665 3.70971 14.7959C3.68667 14.8753 3.66356 14.9547 3.64037 15.0341C3.62489 15.0874 3.62489 15.0874 3.6091 15.1418C3.60007 15.1728 3.59104 15.2038 3.58173 15.2358C3.44436 15.7489 3.5167 16.2127 3.7715 16.6742C4.00308 17.0355 4.37049 17.263 4.78403 17.3686C5.07545 17.4117 5.36587 17.4113 5.65975 17.412C5.75108 17.4123 5.84241 17.4129 5.93374 17.4136C6.19322 17.4155 6.4527 17.4173 6.71218 17.4179C6.87159 17.4182 7.03098 17.4193 7.19037 17.4209C7.25048 17.4213 7.31058 17.4215 7.37069 17.4215C8.12278 17.4207 8.74272 17.62 9.33672 18.0933C9.65384 18.3455 10.0503 18.513 10.4644 18.4941C10.8821 18.4372 11.1879 18.3043 11.5141 18.0444C12.1164 17.5679 12.7534 17.4204 13.5036 17.4229C13.565 17.4225 13.6265 17.4221 13.6879 17.4216C13.8481 17.4204 14.0083 17.42 14.1684 17.4198C14.4251 17.4195 14.6817 17.4182 14.9383 17.4164C15.0269 17.4159 15.1156 17.416 15.2043 17.416C15.7958 17.4145 16.3149 17.3453 16.7857 16.9599C17.0827 16.6599 17.266 16.2435 17.2874 15.8219C17.2836 15.5598 17.228 15.3286 17.1572 15.0769C17.1399 15.0141 17.1399 15.0141 17.1222 14.9501C17.0848 14.8148 17.0468 14.6797 17.0087 14.5447C16.996 14.4997 16.9833 14.4547 16.9702 14.4083C16.8794 14.0874 16.7874 13.7668 16.6952 13.4462C16.6545 13.3047 16.6138 13.1631 16.5732 13.0216C16.5482 12.9346 16.5232 12.8475 16.4981 12.7606C16.4871 12.722 16.476 12.6835 16.4646 12.6438C16.4548 12.6098 16.4451 12.5758 16.435 12.5408C16.4142 12.4639 16.4142 12.4639 16.4142 12.4267C16.6323 12.423 16.8505 12.4203 17.0687 12.4186C17.1429 12.4178 17.217 12.4168 17.2912 12.4155C17.398 12.4137 17.5048 12.4129 17.6116 12.4122C17.6611 12.4111 17.6611 12.4111 17.7116 12.4099C17.9159 12.4098 18.0423 12.4296 18.1977 12.5753C18.3485 12.8352 18.4246 13.1133 18.5065 13.4007C18.5218 13.4538 18.5372 13.5069 18.5527 13.5601C18.5942 13.7036 18.6354 13.8473 18.6765 13.991C18.7023 14.081 18.7281 14.1709 18.754 14.2609C18.8444 14.5752 18.9345 14.8897 19.0243 15.2042C19.1078 15.4965 19.1919 15.7885 19.2763 16.0805C19.349 16.332 19.4212 16.5836 19.4931 16.8353C19.536 16.9853 19.579 17.1353 19.6225 17.2851C19.6634 17.4261 19.7037 17.5672 19.7436 17.7085C19.7583 17.76 19.7731 17.8115 19.7882 17.8629C19.9996 18.585 19.9996 18.585 19.8442 18.9129C19.7233 19.0404 19.63 19.1082 19.4528 19.1291C19.4073 19.1291 19.3617 19.1292 19.3148 19.1293C19.2893 19.1295 19.2638 19.1297 19.2375 19.1299C19.1524 19.1304 19.0672 19.1301 18.9821 19.1299C18.9209 19.1301 18.8597 19.1303 18.7985 19.1307C18.6669 19.1312 18.5352 19.1314 18.4036 19.1314C18.195 19.1313 17.9865 19.132 17.778 19.1329C17.3727 19.1344 16.9673 19.1351 16.5619 19.1357C16.0469 19.1365 15.5318 19.1378 15.0168 19.1397C14.8099 19.1404 14.6029 19.1408 14.396 19.1408C14.2667 19.1409 14.1375 19.1413 14.0082 19.1418C13.9486 19.142 13.8891 19.142 13.8295 19.1419C13.2619 19.141 12.7371 19.1619 12.299 19.5678C12.1703 19.7055 12.0774 19.864 11.9841 20.0271C11.9071 20.1335 11.8504 20.1725 11.7324 20.2297C11.61 20.2441 11.61 20.2441 11.4693 20.2447C11.4306 20.2451 11.4306 20.2451 11.3912 20.2455C11.3064 20.2462 11.2216 20.246 11.1369 20.2458C11.0777 20.246 11.0185 20.2462 10.9593 20.2464C10.8354 20.2467 10.7115 20.2466 10.5876 20.2463C10.4291 20.2458 10.2707 20.2466 10.1122 20.2477C9.99003 20.2484 9.86785 20.2483 9.74567 20.2481C9.68726 20.2481 9.62884 20.2483 9.57043 20.2488C9.48861 20.2494 9.40685 20.249 9.32503 20.2483C9.27856 20.2483 9.23209 20.2483 9.18421 20.2483C9.03284 20.2261 8.95284 20.1759 8.83414 20.0811C8.76723 19.9876 8.76723 19.9876 8.71106 19.886C8.48855 19.5216 8.20438 19.3103 7.79375 19.1893C7.60207 19.1611 7.41792 19.1475 7.22385 19.1473C7.19811 19.1472 7.17237 19.1471 7.14585 19.147C7.06051 19.1468 6.97518 19.1468 6.88984 19.1469C6.82829 19.1468 6.76674 19.1466 6.7052 19.1465C6.57311 19.1462 6.44102 19.146 6.30893 19.1459C6.10001 19.1456 5.89109 19.145 5.68216 19.1443C5.61053 19.1441 5.53889 19.1439 5.46725 19.1436C5.4314 19.1435 5.39553 19.1434 5.35859 19.1433C4.87251 19.1417 4.38643 19.1405 3.90035 19.14C3.57198 19.1397 3.24362 19.1389 2.91525 19.1374C2.74163 19.1367 2.56801 19.1363 2.39439 19.1364C2.23122 19.1366 2.06806 19.1361 1.90489 19.1351C1.84506 19.1348 1.78524 19.1348 1.72542 19.1351C1.64365 19.1354 1.56193 19.1348 1.48016 19.134C1.41159 19.1339 1.41159 19.1339 1.34163 19.1337C1.15306 19.1054 1.04053 19.0271 0.925347 18.8766C0.771244 18.5307 0.92656 18.1178 1.02686 17.776C1.04241 17.7214 1.0579 17.6668 1.07336 17.6121C1.11512 17.465 1.15762 17.3182 1.20028 17.1714C1.24498 17.0171 1.28906 16.8628 1.33323 16.7084C1.40741 16.4495 1.48207 16.1907 1.55701 15.932C1.64355 15.6333 1.72939 15.3344 1.81484 15.0354C1.89728 14.747 1.98017 14.4587 2.06327 14.1705C2.09855 14.0481 2.13367 13.9257 2.16869 13.8033C2.20992 13.6592 2.25155 13.5151 2.29348 13.3712C2.30877 13.3185 2.32394 13.2658 2.33895 13.213C2.35953 13.1407 2.38064 13.0686 2.40177 12.9965C2.41341 12.9562 2.42506 12.9159 2.43706 12.8744C2.49835 12.7139 2.5783 12.582 2.70864 12.4692C2.86426 12.4069 3.00817 12.413 3.17423 12.4158Z" fill="#BA1313"/>
<path d="M6.39776 10.742C6.43718 10.742 6.47659 10.742 6.5172 10.742C6.55932 10.7426 6.60143 10.7432 6.64483 10.7437C6.68828 10.7439 6.73172 10.7441 6.77649 10.7442C6.91506 10.7448 7.0536 10.7462 7.19217 10.7477C7.2862 10.7482 7.38023 10.7487 7.47426 10.7492C7.70458 10.7504 7.9349 10.7523 8.16522 10.7546C8.16552 10.796 8.16582 10.8373 8.16613 10.8798C8.16901 11.2696 8.17227 11.6594 8.1759 12.0492C8.17775 12.2496 8.17947 12.45 8.18089 12.6504C8.18226 12.8438 8.18399 13.0373 8.18595 13.2308C8.18664 13.3045 8.1872 13.3782 8.18763 13.4519C8.18826 13.5554 8.18934 13.6588 8.19053 13.7623C8.19061 13.7926 8.19069 13.8229 8.19077 13.8542C8.19406 14.0805 8.21474 14.2792 8.35797 14.4634C8.5679 14.6266 8.80014 14.6299 9.05495 14.6286C9.10331 14.6288 9.10331 14.6288 9.15264 14.629C9.25855 14.6293 9.36445 14.6291 9.47036 14.6288C9.54434 14.6289 9.61832 14.629 9.6923 14.629C9.84709 14.6292 10.0019 14.629 10.1567 14.6287C10.3547 14.6282 10.5527 14.6285 10.7508 14.6289C10.9034 14.6292 11.0561 14.6291 11.2088 14.6289C11.2818 14.6289 11.3548 14.6289 11.4278 14.6291C11.53 14.6293 11.6322 14.629 11.7343 14.6286C11.7792 14.6288 11.7792 14.6288 11.825 14.629C12.0507 14.6274 12.2477 14.6061 12.4313 14.4634C12.595 14.2529 12.5981 14.0179 12.5987 13.7623C12.5991 13.7296 12.5995 13.6969 12.5999 13.6633C12.601 13.5561 12.6017 13.449 12.6023 13.3418C12.603 13.2672 12.6037 13.1926 12.6045 13.118C12.6064 12.9222 12.6078 12.7265 12.6092 12.5307C12.6107 12.3307 12.6126 12.1307 12.6145 11.9307C12.6181 11.5387 12.6212 11.1466 12.6241 10.7546C12.9004 10.7509 13.1768 10.7483 13.4532 10.7465C13.5472 10.7457 13.6412 10.7447 13.7352 10.7434C13.8704 10.7416 14.0056 10.7408 14.1408 10.7401C14.1827 10.7394 14.2247 10.7386 14.2679 10.7378C14.4921 10.7377 14.6472 10.7393 14.8163 10.9033C14.9595 11.1203 15.0273 11.3439 15.0978 11.5929C15.1101 11.6355 15.1225 11.678 15.1352 11.7219C15.1688 11.838 15.202 11.9541 15.2351 12.0704C15.2629 12.1677 15.2908 12.265 15.3188 12.3623C15.3848 12.592 15.4505 12.8218 15.5159 13.0517C15.5832 13.2881 15.6511 13.5243 15.7193 13.7604C15.778 13.9639 15.8364 14.1674 15.8944 14.3711C15.929 14.4924 15.9638 14.6137 15.9989 14.7348C16.0379 14.8701 16.0764 15.0056 16.1147 15.1411C16.132 15.2005 16.132 15.2005 16.1498 15.2611C16.2265 15.5361 16.2964 15.8152 16.1679 16.082C16.0408 16.2225 15.9263 16.3174 15.7357 16.347C15.6701 16.3471 15.6701 16.3471 15.6033 16.3473C15.5789 16.3476 15.5546 16.3478 15.5295 16.3481C15.4495 16.3488 15.3695 16.3485 15.2895 16.3482C15.2331 16.3486 15.1767 16.349 15.1203 16.3495C14.9718 16.3507 14.8232 16.3511 14.6747 16.3513C14.4105 16.3516 14.1463 16.3532 13.8822 16.3552C13.854 16.3554 13.8259 16.3556 13.7969 16.3558C12.6893 16.3651 11.7673 16.5824 10.8645 17.2472C10.6769 17.3828 10.5199 17.4668 10.2832 17.4429C10.0858 17.3705 9.93371 17.2579 9.76297 17.1363C8.92192 16.5389 8.02459 16.3617 7.0076 16.3591C6.92305 16.3588 6.83852 16.3582 6.75397 16.3575C6.51402 16.3556 6.27407 16.3538 6.0341 16.3532C5.88633 16.3529 5.73858 16.3518 5.59082 16.3502C5.5349 16.3498 5.47898 16.3496 5.42306 16.3496C5.345 16.3497 5.26701 16.3489 5.18896 16.3479C5.14471 16.3477 5.10046 16.3474 5.05486 16.3472C4.86347 16.3174 4.74905 16.2231 4.62137 16.082C4.47496 15.7779 4.58426 15.4497 4.67401 15.1417C4.68603 15.099 4.69806 15.0563 4.71044 15.0123C4.74325 14.8962 4.7765 14.7802 4.80997 14.6643C4.8451 14.5424 4.87973 14.4203 4.91445 14.2983C4.97279 14.0935 5.03155 13.8888 5.09054 13.6842C5.15853 13.4483 5.22583 13.2123 5.29277 12.9761C5.35746 12.748 5.42267 12.5201 5.48811 12.2922C5.51582 12.1956 5.54335 12.099 5.57072 12.0023C5.60911 11.8671 5.64811 11.7321 5.68726 11.5971C5.69841 11.5574 5.70955 11.5177 5.72104 11.4768C5.79843 11.2132 5.88187 10.9687 6.102 10.7926C6.20768 10.7499 6.28396 10.7412 6.39776 10.742Z" fill="#BA1313"/>
<path d="M10.0838 0.149824C10.1137 0.149613 10.1436 0.149402 10.1744 0.149184C10.2376 0.148926 10.3007 0.148979 10.3638 0.149323C10.4601 0.149665 10.5564 0.148506 10.6527 0.147228C10.7142 0.147163 10.7756 0.147186 10.8371 0.147306C10.8658 0.146854 10.8944 0.146401 10.9239 0.145935C11.1029 0.148434 11.21 0.177659 11.3494 0.328425C11.4557 0.498205 11.4616 0.649231 11.4591 0.855936C11.4591 0.888184 11.4592 0.920432 11.4592 0.953657C11.4591 1.05981 11.4583 1.16594 11.4576 1.2721C11.4574 1.34587 11.4572 1.41964 11.4571 1.49341C11.4568 1.68726 11.4558 1.88109 11.4547 2.07493C11.4537 2.27286 11.4532 2.47079 11.4528 2.66872C11.4517 3.05685 11.45 3.44497 11.4479 3.83309C11.4808 3.83273 11.5137 3.83237 11.5476 3.83201C11.8579 3.82874 12.1681 3.82632 12.4783 3.82474C12.6378 3.8239 12.7973 3.82276 12.9568 3.82093C13.1108 3.81918 13.2647 3.81822 13.4187 3.8178C13.4774 3.8175 13.5361 3.81692 13.5948 3.81605C13.6771 3.81488 13.7594 3.81472 13.8417 3.8148C13.8659 3.81422 13.8901 3.81364 13.915 3.81304C14.0825 3.81468 14.1759 3.86601 14.3054 3.99422C14.429 4.17125 14.4188 4.35483 14.4182 4.57692C14.4183 4.61361 14.4185 4.65031 14.4187 4.68812C14.4189 4.76555 14.4188 4.84299 14.4186 4.92042C14.4183 5.03855 14.4192 5.1566 14.4203 5.27472C14.4203 5.35012 14.4203 5.42552 14.4202 5.50092C14.4208 5.55361 14.4208 5.55361 14.4213 5.60737C14.4193 5.82694 14.3955 5.95825 14.2725 6.12925C13.4647 6.72375 12.39 6.2501 11.4479 6.2501C11.4479 8.65623 11.4479 11.0624 11.4479 13.5414C10.7976 13.5414 10.1473 13.5414 9.47729 13.5414C9.47729 11.1353 9.47729 8.72915 9.47729 6.2501C8.59937 6.2501 7.72144 6.2501 6.81692 6.2501C6.57607 6.05316 6.57607 6.05316 6.52132 5.88755C6.50734 5.76028 6.50673 5.63455 6.50708 5.50627C6.5069 5.46958 6.50673 5.43288 6.50656 5.39507C6.50634 5.31764 6.50639 5.2402 6.50667 5.16277C6.50695 5.04464 6.506 4.92659 6.50496 4.80847C6.50491 4.73307 6.50493 4.65767 6.50502 4.58227C6.50466 4.54714 6.50429 4.51201 6.50391 4.47582C6.50594 4.25625 6.52977 4.12494 6.65269 3.95394C6.79045 3.82457 6.91212 3.81637 7.07977 3.81937C7.10575 3.81935 7.13172 3.81933 7.15848 3.81932C7.24396 3.8194 7.32943 3.82034 7.41491 3.82129C7.47432 3.82151 7.53373 3.82169 7.59315 3.82181C7.74925 3.82227 7.90534 3.82345 8.06144 3.82479C8.22084 3.82603 8.38023 3.82658 8.53963 3.82719C8.85219 3.82848 9.16474 3.83054 9.47729 3.83309C9.477 3.79224 9.47671 3.7514 9.47641 3.70931C9.47374 3.32406 9.47178 2.93881 9.47049 2.55354C9.4698 2.35548 9.46887 2.15743 9.46738 1.95938C9.46595 1.76818 9.46517 1.577 9.46483 1.38579C9.46459 1.31291 9.46411 1.24003 9.4634 1.16715C9.46245 1.06492 9.46232 0.96274 9.46238 0.860509C9.46191 0.83049 9.46143 0.800472 9.46095 0.769543C9.46227 0.562993 9.50338 0.447679 9.60867 0.288141C9.753 0.136584 9.90268 0.149078 10.0838 0.149824Z" fill="#BA1313"/>
</svg>
