<svg width="16" height="18" viewBox="0 0 16 18" fill="none" xmlns="http://www.w3.org/2000/svg">
<path d="M6.6495 11.3792C5.68247 10.7841 5.07938 9.69947 5.07938 8.54795V3.06855C5.07938 2.49455 5.21455 1.9452 5.46411 1.45923L2.28574 3.41365C1.31525 4.00878 0.712158 5.09339 0.712158 6.24491V11.2278C0.712158 11.7877 0.857732 12.3335 1.11422 12.8124C1.35338 13.2069 1.69305 13.5379 2.11244 13.7773C2.98935 14.2774 4.02223 14.2563 4.87835 13.7245L7.65812 11.999L6.6495 11.3792ZM14.5209 9.4917L11.5956 7.71336V8.51978C11.5956 9.66426 10.9994 10.7489 10.0393 11.344L5.24228 14.3267C4.71544 14.6542 4.13661 14.8267 3.55432 14.8408L6.6495 16.7459C7.16941 17.0664 7.75517 17.2248 8.33746 17.2248C8.91976 17.2248 9.50552 17.0664 10.0254 16.7459L13.1726 14.8091L14.3927 14.059C14.4862 14.0027 14.5764 13.9393 14.663 13.8689C14.6907 13.8513 14.7185 13.8302 14.7427 13.8125C14.968 13.6259 15.169 13.4146 15.3354 13.1822C15.3423 13.1716 15.3493 13.1611 15.3562 13.1505C15.6231 12.7315 15.7721 12.2385 15.7687 11.7208C15.7652 10.7982 15.3008 9.96358 14.5209 9.4917ZM14.3892 3.41365L11.0722 1.37472L10.0254 0.73029C9.87986 0.638732 9.72735 0.564781 9.57138 0.501395C9.40154 0.427444 9.22477 0.3711 9.04801 0.335886C8.41025 0.20207 7.74477 0.307714 7.15554 0.649296C6.28903 1.15287 5.77259 2.05436 5.77259 3.06855V6.44916L6.74308 5.86811C7.72744 5.28003 8.94749 5.28355 9.92838 5.87868L14.8779 8.88601C15.325 9.16069 15.6924 9.5234 15.9593 9.9495L15.9628 6.24491C15.9628 5.09339 15.3597 4.00878 14.3892 3.41365Z" fill="#880909"/>
</svg>
