<svg width="16" height="18" viewBox="0 0 16 18" fill="none" xmlns="http://www.w3.org/2000/svg">
<path d="M6.64925 11.3792C5.68223 10.7841 5.07914 9.69947 5.07914 8.54795V3.06855C5.07914 2.49455 5.21431 1.9452 5.46387 1.45923L2.2855 3.41365C1.31501 4.00878 0.711914 5.09339 0.711914 6.24491V11.2278C0.711914 11.7877 0.857488 12.3335 1.11398 12.8124C1.35313 13.2069 1.69281 13.5379 2.1122 13.7773C2.98911 14.2774 4.02199 14.2563 4.8781 13.7245L7.65788 11.999L6.64925 11.3792ZM14.5207 9.4917L11.5953 7.71336V8.51978C11.5953 9.66426 10.9991 10.7489 10.0391 11.344L5.24204 14.3267C4.7152 14.6542 4.13637 14.8267 3.55407 14.8408L6.64925 16.7459C7.16916 17.0664 7.75492 17.2248 8.33722 17.2248C8.91952 17.2248 9.50528 17.0664 10.0252 16.7459L13.1724 14.8091L14.3924 14.059C14.486 14.0027 14.5761 13.9393 14.6628 13.8689C14.6905 13.8513 14.7182 13.8302 14.7425 13.8125C14.9678 13.6259 15.1688 13.4146 15.3352 13.1822C15.3421 13.1716 15.349 13.1611 15.356 13.1505C15.6229 12.7315 15.7719 12.2385 15.7684 11.7208C15.765 10.7982 15.3005 9.96358 14.5207 9.4917ZM14.3889 3.41365L11.0719 1.37472L10.0252 0.73029C9.87961 0.638732 9.72711 0.564781 9.57113 0.501395C9.4013 0.427444 9.22453 0.3711 9.04776 0.335886C8.41001 0.20207 7.74453 0.307714 7.1553 0.649296C6.28879 1.15287 5.77235 2.05436 5.77235 3.06855V6.44916L6.74284 5.86811C7.7272 5.28003 8.94725 5.28355 9.92814 5.87868L14.8777 8.88601C15.3248 9.16069 15.6922 9.5234 15.9591 9.9495L15.9625 6.24491C15.9625 5.09339 15.3594 4.00878 14.3889 3.41365Z" fill="#BA1313"/>
</svg>
