<svg width="16" height="20" viewBox="0 0 16 20" fill="none" xmlns="http://www.w3.org/2000/svg">
<path d="M2.54271 0.172282C2.59204 0.172067 2.64137 0.171853 2.69219 0.171631C2.82827 0.171161 2.96434 0.171224 3.10042 0.171518C3.2475 0.171708 3.39459 0.171208 3.54168 0.1708C3.82951 0.170116 4.11734 0.170081 4.40517 0.17029C4.63921 0.170452 4.87325 0.170394 5.10729 0.170181C5.15732 0.170136 5.15732 0.170136 5.20835 0.17009C5.27612 0.170029 5.34388 0.169968 5.41164 0.169906C6.04664 0.169359 6.68163 0.169576 7.31663 0.170033C7.89704 0.170429 8.47744 0.169913 9.05784 0.168959C9.6544 0.167986 10.2509 0.167604 10.8475 0.167869C11.1822 0.168008 11.5169 0.16792 11.8515 0.167221C12.1365 0.166633 12.4214 0.16661 12.7063 0.167304C12.8515 0.167643 12.9967 0.16773 13.142 0.167118C13.2997 0.166462 13.4575 0.167052 13.6152 0.167756C13.6607 0.167373 13.7062 0.16699 13.753 0.166595C14.2092 0.170772 14.5937 0.301049 14.9215 0.626295C15.1963 0.966007 15.325 1.30679 15.3255 1.74349C15.3255 1.77133 15.3256 1.79917 15.3257 1.82786C15.3259 1.92138 15.3259 2.0149 15.3258 2.10842C15.3259 2.17606 15.326 2.24371 15.3262 2.31135C15.3265 2.49741 15.3266 2.68347 15.3266 2.86953C15.3267 3.07013 15.327 3.27073 15.3272 3.47133C15.3278 3.91006 15.328 4.34878 15.3282 4.7875C15.3283 5.06142 15.3285 5.33534 15.3287 5.60926C15.3291 6.3676 15.3296 7.12595 15.3297 7.88429C15.3297 7.93283 15.3297 7.98137 15.3297 8.03138C15.3297 8.08003 15.3297 8.12869 15.3297 8.17882C15.3298 8.27741 15.3298 8.37601 15.3298 8.4746C15.3298 8.52351 15.3298 8.57242 15.3298 8.6228C15.33 9.4153 15.3307 10.2078 15.3316 11.0003C15.3325 11.8138 15.333 12.6274 15.3331 13.441C15.3331 13.8978 15.3334 14.3546 15.3341 14.8114C15.3347 15.2004 15.3349 15.5894 15.3346 15.9784C15.3344 16.1768 15.3345 16.3752 15.335 16.5737C15.3355 16.7555 15.3355 16.9372 15.335 17.119C15.3349 17.1846 15.335 17.2503 15.3354 17.3159C15.3383 17.9114 15.2399 18.3482 14.8418 18.8065C14.7401 18.8842 14.7401 18.8842 14.63 18.9535C14.594 18.9767 14.5579 18.9998 14.5208 19.0237C14.2286 19.1774 13.9593 19.1768 13.6349 19.176C13.5857 19.1761 13.5364 19.1763 13.4857 19.1765C13.3494 19.1769 13.2131 19.177 13.0769 19.1769C12.9297 19.1769 12.7826 19.1773 12.6355 19.1777C12.3474 19.1784 12.0592 19.1786 11.7711 19.1786C11.5369 19.1787 11.3026 19.1788 11.0683 19.1791C10.4037 19.1798 9.73909 19.1801 9.07446 19.1801C9.03865 19.1801 9.00284 19.1801 8.96595 19.1801C8.93009 19.1801 8.89424 19.1801 8.8573 19.1801C8.27637 19.18 7.69545 19.1808 7.11452 19.1819C6.51761 19.1831 5.92071 19.1836 5.3238 19.1835C4.98885 19.1835 4.6539 19.1837 4.31895 19.1846C4.03374 19.1853 3.74854 19.1855 3.46333 19.185C3.31793 19.1847 3.17254 19.1847 3.02714 19.1854C2.86921 19.1861 2.7113 19.1856 2.55337 19.185C2.50784 19.1854 2.4623 19.1858 2.41539 19.1863C1.95902 19.1823 1.57448 19.0521 1.24652 18.7267C0.977256 18.3938 0.841983 18.0548 0.843942 17.6258C0.84407 17.5761 0.844199 17.5264 0.844331 17.4752C0.844665 17.4236 0.844999 17.372 0.845344 17.3189C0.845523 17.2665 0.845703 17.2142 0.845889 17.1603C0.846358 17.0312 0.847013 16.9022 0.847835 16.7732C0.825306 16.7736 0.802776 16.774 0.779564 16.7744C0.677733 16.7761 0.575904 16.7771 0.474065 16.7781C0.438604 16.7788 0.403142 16.7795 0.366606 16.7802C0.332687 16.7804 0.298767 16.7807 0.263819 16.781C0.232502 16.7814 0.201184 16.7818 0.168917 16.7822C0.0903278 16.7732 0.0903278 16.7732 0.0105902 16.6934C0 16.6187 0 16.6187 0.00062295 16.534C0.00031459 16.492 0.00031459 16.492 0 16.4492C0.0105902 16.3745 0.0105902 16.3745 0.0903278 16.2947C0.194199 16.2842 0.194199 16.2842 0.327419 16.2833C0.377185 16.2828 0.426951 16.2822 0.478225 16.2817C0.518232 16.2815 0.518232 16.2815 0.559047 16.2814C0.642507 16.281 0.725949 16.2802 0.809403 16.2793C0.98667 16.2773 1.16394 16.276 1.34121 16.2748C1.54635 16.2734 1.75149 16.2717 1.95662 16.2694C2.03878 16.2686 2.12093 16.2683 2.20309 16.2679C2.2531 16.2674 2.30312 16.2669 2.35465 16.2663C2.39868 16.266 2.44271 16.2657 2.48807 16.2654C2.60005 16.2551 2.66639 16.2331 2.76154 16.1751C2.76154 16.0962 2.76154 16.0173 2.76154 15.9359C2.64396 15.8689 2.55785 15.8458 2.42293 15.8435C2.38733 15.8427 2.35173 15.8419 2.31506 15.841C2.25947 15.8404 2.25947 15.8404 2.20275 15.8397C2.15127 15.8386 2.15127 15.8386 2.09874 15.8375C1.97083 15.835 1.8429 15.8332 1.71498 15.8313C1.42882 15.8263 1.14267 15.8214 0.847835 15.8163C0.847835 15.0795 0.847835 14.3428 0.847835 13.5837C0.597858 13.5837 0.34788 13.5837 0.0903278 13.5837C0.0105902 13.5039 0.0105902 13.5039 0 13.4292C0.000205574 13.4012 0.000411147 13.3733 0.00062295 13.3444C0.00031459 13.3025 0.00031459 13.3025 0 13.2597C0.0105902 13.185 0.0105902 13.185 0.0903278 13.1052C0.194199 13.0947 0.194199 13.0947 0.327419 13.0938C0.377185 13.0933 0.426951 13.0927 0.478225 13.0922C0.518232 13.092 0.518232 13.092 0.559047 13.0919C0.642507 13.0915 0.725949 13.0907 0.809403 13.0898C0.98667 13.0878 1.16394 13.0865 1.34121 13.0853C1.54635 13.0839 1.75149 13.0822 1.95662 13.0799C2.03878 13.0791 2.12093 13.0787 2.20309 13.0784C2.2531 13.0779 2.30312 13.0774 2.35465 13.0768C2.39868 13.0765 2.44271 13.0762 2.48807 13.0759C2.60005 13.0656 2.66639 13.0436 2.76154 12.9856C2.76154 12.9067 2.76154 12.8277 2.76154 12.7464C2.64396 12.6794 2.55785 12.6563 2.42293 12.654C2.38733 12.6532 2.35173 12.6524 2.31506 12.6515C2.25947 12.6509 2.25947 12.6509 2.20275 12.6502C2.15127 12.6491 2.15127 12.6491 2.09874 12.648C1.97083 12.6455 1.8429 12.6437 1.71498 12.6418C1.42882 12.6368 1.14267 12.6319 0.847835 12.6268C0.847835 11.89 0.847835 11.1533 0.847835 10.3942C0.597858 10.3942 0.34788 10.3942 0.0903278 10.3942C0.0105902 10.3144 0.0105902 10.3144 0 10.2397C0.00030836 10.1977 0.00030836 10.1977 0.00062295 10.1549C0.000417377 10.127 0.000211803 10.099 0 10.0702C0.0105902 9.99547 0.0105902 9.99547 0.0903278 9.91573C0.194199 9.90516 0.194199 9.90516 0.327419 9.90428C0.377185 9.90375 0.426951 9.90321 0.478225 9.90266C0.504896 9.90256 0.531568 9.90246 0.559047 9.90235C0.642507 9.90202 0.725949 9.90121 0.809403 9.90026C0.98667 9.89833 1.16394 9.89702 1.34121 9.89579C1.54635 9.89437 1.75149 9.8927 1.95662 9.89038C2.03878 9.88958 2.12093 9.88924 2.20309 9.88893C2.2531 9.88839 2.30312 9.88786 2.35465 9.88731C2.39868 9.88702 2.44271 9.88673 2.48807 9.88643C2.60005 9.87605 2.66639 9.85408 2.76154 9.79612C2.76154 9.71718 2.76154 9.63824 2.76154 9.55691C2.64396 9.48988 2.55785 9.46679 2.42293 9.46446C2.38733 9.46366 2.35173 9.46286 2.31506 9.46204C2.25947 9.46136 2.25947 9.46136 2.20275 9.46066C2.15127 9.45961 2.15127 9.45961 2.09874 9.45853C1.97083 9.45602 1.8429 9.45418 1.71498 9.45225C1.42882 9.44732 1.14267 9.44239 0.847835 9.4373C0.847835 8.70053 0.847835 7.96375 0.847835 7.20465C0.597858 7.20465 0.34788 7.20465 0.0903278 7.20465C0.0105902 7.12491 0.0105902 7.12491 0 7.05016C0.00030836 7.00822 0.00030836 7.00822 0.00062295 6.96544C0.000417377 6.93748 0.000211803 6.90952 0 6.88072C0.0105902 6.80596 0.0105902 6.80596 0.0903278 6.72622C0.194199 6.71566 0.194199 6.71566 0.327419 6.71478C0.377185 6.71424 0.426951 6.71371 0.478225 6.71316C0.504896 6.71305 0.531568 6.71295 0.559047 6.71285C0.642507 6.71252 0.725949 6.7117 0.809403 6.71075C0.98667 6.70883 1.16394 6.70752 1.34121 6.70629C1.54635 6.70487 1.75149 6.70319 1.95662 6.70087C2.03878 6.70007 2.12093 6.69974 2.20309 6.69942C2.2531 6.69889 2.30312 6.69835 2.35465 6.6978C2.39868 6.69751 2.44271 6.69722 2.48807 6.69692C2.60005 6.68654 2.66639 6.66458 2.76154 6.60662C2.76154 6.52768 2.76154 6.44874 2.76154 6.3674C2.64396 6.30037 2.55785 6.27728 2.42293 6.27495C2.38733 6.27416 2.35173 6.27336 2.31506 6.27253C2.25947 6.27185 2.25947 6.27185 2.20275 6.27116C2.15127 6.2701 2.15127 6.2701 2.09874 6.26903C1.97083 6.26652 1.8429 6.26467 1.71498 6.26275C1.42882 6.25782 1.14267 6.25288 0.847835 6.2478C0.847835 5.51102 0.847835 4.77425 0.847835 4.01514C0.597858 4.01514 0.34788 4.01514 0.0903278 4.01514C0.0105902 3.93541 0.0105902 3.93541 0 3.86065C0.000205574 3.8327 0.000411147 3.80474 0.00062295 3.77593C0.000417377 3.74797 0.000211803 3.72002 0 3.69121C0.0105902 3.61646 0.0105902 3.61646 0.0903278 3.53672C0.194199 3.52615 0.194199 3.52615 0.327419 3.52527C0.377185 3.52474 0.426951 3.5242 0.478225 3.52365C0.504896 3.52355 0.531568 3.52345 0.559047 3.52334C0.642507 3.52301 0.725949 3.52219 0.809403 3.52125C0.98667 3.51932 1.16394 3.51801 1.34121 3.51678C1.54635 3.51536 1.75149 3.51369 1.95662 3.51136C2.03878 3.51057 2.12093 3.51023 2.20309 3.50992C2.2531 3.50938 2.30312 3.50885 2.35465 3.5083C2.39868 3.50801 2.44271 3.50772 2.48807 3.50742C2.60005 3.49704 2.66639 3.47507 2.76154 3.41711C2.76154 3.33817 2.76154 3.25923 2.76154 3.1779C2.64396 3.11087 2.55785 3.08778 2.42293 3.08545C2.38782 3.08466 2.35271 3.08387 2.31654 3.08305C2.27899 3.08259 2.24144 3.08213 2.20275 3.08165C2.16404 3.08088 2.12533 3.08011 2.08545 3.07931C1.96196 3.07693 1.83848 3.07508 1.71498 3.07324C1.63119 3.07172 1.54741 3.07016 1.46362 3.06857C1.25836 3.06475 1.0531 3.06139 0.847835 3.05829C0.844857 2.83848 0.842698 2.61867 0.841265 2.39884C0.840667 2.32422 0.839854 2.24959 0.838812 2.17497C0.830752 1.58229 0.850246 1.10522 1.25898 0.641246C1.66988 0.278123 1.99166 0.16939 2.54271 0.172282ZM4.51577 5.0916C4.49418 5.11314 4.4726 5.13467 4.45036 5.15686C4.04954 5.57248 3.88035 6.15166 3.86042 6.71875C3.90222 8.17686 5.03055 9.7072 5.91118 10.7928C5.9399 10.8292 5.96863 10.8655 5.99823 10.9029C6.55524 11.599 7.19294 12.2874 7.90462 12.8262C7.95095 12.8626 7.99725 12.899 8.04353 12.9355C9.16675 13.8106 10.6915 14.779 12.1706 14.6601C12.6482 14.5646 13.0871 14.2571 13.3666 13.8627C13.5748 13.4913 13.6315 13.0815 13.5236 12.6667C13.2949 11.9913 12.6073 11.1897 11.9937 10.8327C11.7354 10.7602 11.4662 10.7547 11.2158 10.8606C11.07 10.953 10.9591 11.0815 10.8407 11.2059C10.5494 11.4968 10.2364 11.7163 9.8233 11.7696C9.19439 11.7345 8.55194 11.0263 8.12288 10.6104C8.06589 10.5554 8.008 10.5013 7.95009 10.4473C7.49418 10.0113 6.9116 9.35414 6.85993 8.6963C6.859 8.64126 6.859 8.64126 6.85806 8.58511C6.85703 8.54862 6.856 8.51213 6.85494 8.47453C6.88515 8.21202 7.02955 8.07122 7.22435 7.90983C7.46747 7.69552 7.59853 7.52905 7.64126 7.20496C7.67149 6.61871 7.38263 6.12414 7.0029 5.69682C6.73358 5.4061 6.45344 5.13464 6.11052 4.93213C6.07336 4.90915 6.0362 4.88618 5.99792 4.86251C5.47049 4.56398 4.91913 4.62283 4.51577 5.0916Z" fill="#880909"/>
</svg>
