<?xml version="1.0" encoding="UTF-8"?>
<svg version="1.1" xmlns="http://www.w3.org/2000/svg" width="512" height="512">
<path d="M0 0 C0.81597656 0.62261719 1.63195312 1.24523437 2.47265625 1.88671875 C26.00727812 20.27430763 46.26071351 42.97666989 61 69 C61.41749512 69.73395996 61.83499023 70.46791992 62.26513672 71.22412109 C92.47021264 124.96674987 98.54129018 187.82384638 82 247 C79.96864771 253.78290945 77.6006034 260.41604746 75 267 C74.72575195 267.69738281 74.45150391 268.39476562 74.16894531 269.11328125 C67.9569137 284.6396494 59.70952233 299.39619083 50 313 C49.57525391 313.59989746 49.15050781 314.19979492 48.71289062 314.81787109 C41.69890944 324.66366062 34.07089592 333.6539208 25.64013672 342.31298828 C24.13386838 343.86230568 22.6453131 345.42658294 21.16015625 346.99609375 C14.30904555 354.08865328 6.88848472 360.12335801 -1 366 C-1.8647998 366.64799561 -1.8647998 366.64799561 -2.74707031 367.30908203 C-51.73659758 403.80918436 -112.21787729 419.18258833 -172.74609375 410.97265625 C-221.57577465 403.70270992 -264.57942209 380.9556037 -300 347 C-300.94746094 346.10539062 -301.89492188 345.21078125 -302.87109375 344.2890625 C-310.00574733 337.38717067 -316.07883945 329.93539698 -322 322 C-322.42667969 321.43410156 -322.85335937 320.86820312 -323.29296875 320.28515625 C-359.64186992 271.85723562 -375.36758671 209.94348095 -367 150 C-358.59668709 92.4810932 -328.59399656 37.52713638 -282 2 C-281.44231934 1.57122559 -280.88463867 1.14245117 -280.31005859 0.70068359 C-206.55988893 -55.74833305 -105.43055803 -62.16417205 0 0 Z M-254 22 C-255.051875 22.76828125 -256.10375 23.5365625 -257.1875 24.328125 C-264.915323 30.07685744 -272.03719967 36.35369059 -279 43 C-279.85335937 43.80050781 -280.70671875 44.60101563 -281.5859375 45.42578125 C-288.47106722 52.06113497 -294.34850816 59.31083939 -300 67 C-300.41749512 67.56783203 -300.83499023 68.13566406 -301.26513672 68.72070312 C-330.93258371 109.72085596 -343.79153412 162.4525108 -336.39794922 212.53808594 C-330.46063612 249.26929165 -316.48006841 283.66519689 -292 312 C-291.31808594 312.79148437 -290.63617188 313.58296875 -289.93359375 314.3984375 C-271.21792149 335.62515702 -249.75728057 352.11357146 -224 364 C-222.86304688 364.53238281 -221.72609375 365.06476563 -220.5546875 365.61328125 C-171.96887459 387.42616941 -116.37243249 387.16847712 -66.76953125 368.890625 C-60.17945984 366.35301526 -53.91443352 363.24758751 -47.69873047 359.90820312 C-46.18665314 359.09979156 -44.65874034 358.32115838 -43.12890625 357.546875 C1.67884203 334.37734097 33.94542827 291.21013005 49.37036133 243.88354492 C64.98413239 193.76491779 59.68848274 138.98062537 35.99560547 92.27734375 C29.1225285 79.2343845 20.71503044 67.08259414 11 56 C10.28457031 55.175 9.56914062 54.35 8.83203125 53.5 C-27.07743131 12.82379463 -75.94021546 -10.19644513 -130 -14 C-173.33765297 -16.66303061 -218.92767853 -3.70641744 -254 22 Z " fill="#000000" transform="translate(396,74)"/>
<path d="M0 0 C14.64217513 11.77740173 24.42733369 25.70182823 27.40234375 44.67578125 C29.09922156 61.5110971 26.14717576 78.27243809 15.796875 91.984375 C3.96860833 106.31292568 -10.89011863 114.07453026 -27.58154297 121.58300781 C-38.81148253 126.67011922 -38.81148253 126.67011922 -46.421875 135.97265625 C-46.57140625 136.76542969 -46.7209375 137.55820312 -46.875 138.375 C-48.49159883 145.11764955 -51.44471139 149.27650546 -57.125 153.3125 C-61.05748322 155.27874161 -65.82882306 154.64110277 -70.125 154.3125 C-75.41423987 152.54942004 -77.92508936 149.70094888 -81.125 145.3125 C-84.35379146 135.62612561 -82.22104854 124.81113654 -77.94140625 115.828125 C-69.51567328 100.45653285 -55.59431042 93.02785091 -40.125 86.375 C-28.79039437 81.49341878 -15.94076408 75.60726144 -10.0078125 64.15625 C-7.64781131 56.55412228 -7.66588025 45.57944532 -10.6875 38.1875 C-11.78136332 36.17169485 -11.78136332 36.17169485 -13.125 34.3125 C-13.599375 33.62027344 -14.07375 32.92804688 -14.5625 32.21484375 C-20.95041914 23.99961121 -30.16167718 19.7991486 -40.203125 17.78125 C-55.93336409 15.90114174 -73.82631197 15.46635598 -87.125 25.3125 C-95.54844538 32.95042567 -98.86963247 42.20080092 -100.125 53.3125 C-100.08375 54.488125 -100.0425 55.66375 -100 56.875 C-100.22350188 63.02130159 -102.32746875 68.51496875 -106.6875 72.875 C-112.42691835 76.25978518 -118.64804454 75.87883478 -125.125 75.3125 C-130.05099693 73.06555403 -132.67529389 70.12118236 -135.125 65.3125 C-138.94191403 52.0508133 -133.65685275 35.72440394 -127.44433594 24.00073242 C-117.80403268 6.63930363 -103.00600796 -5.21530907 -84.07421875 -10.9765625 C-56.8600875 -18.67723717 -23.61256025 -16.9394454 0 0 Z " fill="#000000" transform="translate(310.125,148.6875)"/>
<path d="M0 0 C4.83887779 2.92348867 8.18570275 6.56106953 10.625 11.68359375 C12.27583632 19.11235719 12.24481822 26.15684822 8.78125 33.046875 C6.00367587 37.02034911 2.10153535 40.14035974 -2.515625 41.6953125 C-9.49452995 42.89723502 -16.65845473 43.07388625 -22.875 39.3828125 C-27.80193643 35.6546173 -31.2894773 31.46359075 -32.4375 25.29296875 C-33.04866165 18.00995904 -32.37280328 11.77305897 -28.08984375 5.71484375 C-21.35095709 -1.90459077 -9.34433329 -3.35116715 0 0 Z " fill="#000000" transform="translate(253.625,320.94140625)"/>
</svg>
