<svg width="7" height="10" viewBox="0 0 7 10" fill="none" xmlns="http://www.w3.org/2000/svg">
<path d="M0.677782 9.65748C0.548844 9.52854 0.484375 9.37588 0.484375 9.19949C0.484375 9.02345 0.548844 8.87096 0.677782 8.74202L4.45566 4.96415L0.664888 1.17338C0.544546 1.05304 0.484375 0.902609 0.484375 0.722097C0.484375 0.541584 0.548844 0.386859 0.677782 0.257921C0.806719 0.128983 0.959382 0.0645142 1.13577 0.0645142C1.31181 0.0645142 1.4643 0.128983 1.59324 0.257921L5.92555 4.60312C5.97712 4.6547 6.01374 4.71057 6.0354 4.77074C6.05672 4.83091 6.06738 4.89538 6.06738 4.96415C6.06738 5.03291 6.05672 5.09738 6.0354 5.15755C6.01374 5.21773 5.97712 5.2736 5.92555 5.32517L1.58035 9.67038C1.46 9.79072 1.31181 9.85089 1.13577 9.85089C0.959382 9.85089 0.806719 9.78642 0.677782 9.65748Z" fill="#880909"/>
</svg>
