<svg width="19" height="19" viewBox="0 0 19 19" fill="none" xmlns="http://www.w3.org/2000/svg">
<path d="M11.0454 0.825419C11.0192 0.824041 10.9944 0.830931 10.9682 0.836443L1.09106 2.69943C0.924325 2.73112 0.804443 2.8827 0.804443 3.05219V16.2033C0.804443 16.3728 0.924325 16.5244 1.09106 16.5561L10.9682 18.4522C10.9903 18.4563 11.0123 18.4632 11.0343 18.4632C11.1156 18.4632 11.1914 18.4384 11.2548 18.386C11.3361 18.3185 11.3871 18.2165 11.3871 18.1104V1.17817C11.3871 1.07345 11.3361 0.970104 11.2548 0.902585C11.1942 0.852978 11.1225 0.828175 11.0454 0.825419ZM12.0926 3.68053V7.84745C12.9056 7.71655 13.5463 7.13368 13.7682 6.35927C14.4461 6.64175 15.0125 7.12127 15.4107 7.73722C14.7011 8.07895 14.2091 8.80513 14.2091 9.6443C14.2091 10.478 14.6983 11.1959 15.3997 11.5404C15.0001 12.148 14.4324 12.6165 13.7572 12.8963C13.5257 12.1384 12.8946 11.5707 12.0926 11.4411V15.6081C13.0765 15.4496 13.804 14.6352 13.8454 13.6128C14.7962 13.2669 15.5816 12.6193 16.0942 11.7498C16.1686 11.7581 16.2485 11.7608 16.3257 11.7608C17.4928 11.7608 18.4422 10.8114 18.4422 9.6443C18.4422 8.47718 17.4928 7.52777 16.3257 7.52777C16.2568 7.52777 16.1837 7.5319 16.1162 7.53879C15.6036 6.65277 14.8099 5.99273 13.8454 5.64273C13.7889 4.63545 13.0654 3.83762 12.0926 3.68053ZM5.95247 6.26006C6.30522 6.26006 6.5877 6.29037 6.83435 6.3262C7.08101 6.36202 7.32766 6.4323 7.53986 6.50257V7.88053C7.43376 7.81025 7.32766 7.74135 7.18711 7.67108C7.04656 7.6008 6.94183 7.5636 6.80128 7.52777C6.66073 7.49194 6.52156 7.46163 6.41546 7.46163C6.27491 7.4258 6.17018 7.41753 6.02963 7.41753C5.85325 7.41753 5.70719 7.4258 5.56664 7.46163C5.42609 7.49746 5.31999 7.52364 5.21388 7.59391C5.10778 7.66419 5.04026 7.74411 5.00444 7.81438C4.96861 7.88466 4.92727 7.98387 4.92727 8.08997C4.92727 8.19608 4.96861 8.30631 5.00444 8.37659C5.07471 8.44686 5.14085 8.54883 5.24695 8.61911C5.35306 8.68938 5.49223 8.75828 5.63278 8.82856C5.77333 8.89883 5.95247 8.97875 6.12884 9.04903C6.3755 9.15513 6.62215 9.26123 6.83435 9.40178C7.04656 9.50788 7.22294 9.6443 7.36349 9.82068C7.50404 9.96123 7.61014 10.1376 7.71624 10.3498C7.78652 10.562 7.82648 10.7756 7.82648 11.0223C7.79065 11.4108 7.72313 11.6906 7.61703 11.9372C7.47648 12.1839 7.29045 12.3919 7.0438 12.5325C6.79715 12.673 6.55601 12.7819 6.23908 12.8522C5.92215 12.9224 5.59971 12.9624 5.24695 12.9624C4.8942 12.9624 4.53869 12.9224 4.22176 12.8522C3.90483 12.8163 3.62924 12.7158 3.41704 12.6097V11.1656C3.66369 11.3778 3.94893 11.5445 4.26585 11.6506C4.58278 11.7567 4.86388 11.827 5.18081 11.827C5.35719 11.827 5.53632 11.8297 5.67688 11.7939C5.81743 11.7581 5.92353 11.7209 6.02963 11.6506C6.13573 11.5803 6.20325 11.5114 6.23908 11.4411C6.27491 11.3709 6.30522 11.2689 6.30522 11.1986C6.30522 11.0581 6.27628 10.952 6.20601 10.8459C6.13573 10.7398 6.0255 10.6654 5.91939 10.5593C5.77884 10.489 5.63278 10.387 5.4564 10.3167C5.28003 10.2465 5.1064 10.1693 4.8942 10.0632C4.40089 9.851 4.01645 9.60848 3.76979 9.29155C3.52314 8.97462 3.38397 8.62324 3.38397 8.20021C3.38397 7.84745 3.45286 7.56497 3.59341 7.31832C3.73397 7.07167 3.90897 6.8884 4.15562 6.71202C4.40227 6.57147 4.65444 6.42954 4.97136 6.35927C5.28829 6.28899 5.59971 6.26006 5.95247 6.26006Z" fill="#880909"/>
</svg>
