<svg width="19" height="19" viewBox="0 0 19 19" fill="none" xmlns="http://www.w3.org/2000/svg">
<g clip-path="url(#clip0_16_175)">
<path d="M11.0446 0.825421C11.0185 0.824043 10.9937 0.830933 10.9675 0.836445L1.09032 2.69943C0.923593 2.73113 0.803711 2.8827 0.803711 3.05219V16.2033C0.803711 16.3728 0.923593 16.5244 1.09032 16.5561L10.9675 18.4522C10.9895 18.4563 11.0116 18.4632 11.0336 18.4632C11.1149 18.4632 11.1907 18.4384 11.2541 18.386C11.3354 18.3185 11.3864 18.2165 11.3864 18.1104V1.17818C11.3864 1.07345 11.3354 0.970106 11.2541 0.902586C11.1935 0.85298 11.1218 0.828177 11.0446 0.825421ZM12.0919 3.68053V7.84746C12.9049 7.71655 13.5456 7.13368 13.7675 6.35927C14.4454 6.64175 15.0118 7.12128 15.41 7.73722C14.7003 8.07895 14.2084 8.80513 14.2084 9.6443C14.2084 10.478 14.6976 11.1959 15.399 11.5404C14.9994 12.148 14.4316 12.6165 13.7564 12.8963C13.5249 12.1384 12.8938 11.5707 12.0919 11.4412V15.6081C13.0757 15.4496 13.8033 14.6352 13.8446 13.6128C14.7954 13.2669 15.5808 12.6193 16.0934 11.7498C16.1679 11.7581 16.2478 11.7608 16.3249 11.7608C17.4921 11.7608 18.4415 10.8114 18.4415 9.6443C18.4415 8.47718 17.4921 7.52777 16.3249 7.52777C16.256 7.52777 16.183 7.53191 16.1155 7.5388C15.6029 6.65277 14.8092 5.99274 13.8446 5.64274C13.7881 4.63545 13.0647 3.83762 12.0919 3.68053ZM5.95173 6.26006C6.30449 6.26006 6.58697 6.29037 6.83362 6.3262C7.08027 6.36203 7.32693 6.4323 7.53913 6.50258V7.88053C7.43303 7.81025 7.32693 7.74135 7.18638 7.67108C7.04583 7.6008 6.9411 7.5636 6.80055 7.52777C6.66 7.49195 6.52083 7.46163 6.41472 7.46163C6.27417 7.4258 6.16945 7.41754 6.0289 7.41754C5.85252 7.41754 5.70646 7.4258 5.56591 7.46163C5.42536 7.49746 5.31925 7.52364 5.21315 7.59391C5.10705 7.66419 5.03953 7.74411 5.0037 7.81439C4.96788 7.88466 4.92654 7.98387 4.92654 8.08998C4.92654 8.19608 4.96788 8.30631 5.0037 8.37659C5.07398 8.44686 5.14012 8.54883 5.24622 8.61911C5.35232 8.68938 5.4915 8.75828 5.63205 8.82856C5.7726 8.89883 5.95173 8.97875 6.12811 9.04903C6.37476 9.15513 6.62142 9.26123 6.83362 9.40178C7.04583 9.50789 7.2222 9.6443 7.36275 9.82068C7.5033 9.96123 7.60941 10.1376 7.71551 10.3498C7.78578 10.562 7.82575 10.7756 7.82575 11.0223C7.78992 11.4108 7.7224 11.6906 7.6163 11.9372C7.47575 12.1839 7.28972 12.3919 7.04307 12.5325C6.79642 12.673 6.55527 12.7819 6.23835 12.8522C5.92142 12.9224 5.59898 12.9624 5.24622 12.9624C4.89347 12.9624 4.53796 12.9224 4.22103 12.8522C3.9041 12.8163 3.62851 12.7158 3.4163 12.6097V11.1656C3.66296 11.3778 3.94819 11.5445 4.26512 11.6506C4.58205 11.7567 4.86315 11.827 5.18008 11.827C5.35646 11.827 5.53559 11.8297 5.67614 11.7939C5.81669 11.7581 5.9228 11.7209 6.0289 11.6506C6.135 11.5803 6.20252 11.5114 6.23835 11.4412C6.27417 11.3709 6.30449 11.2689 6.30449 11.1986C6.30449 11.0581 6.27555 10.952 6.20528 10.8459C6.135 10.7398 6.02476 10.6654 5.91866 10.5593C5.77811 10.489 5.63205 10.387 5.45567 10.3167C5.27929 10.2465 5.10567 10.1693 4.89347 10.0632C4.40016 9.851 4.01571 9.60848 3.76906 9.29155C3.52241 8.97462 3.38323 8.62324 3.38323 8.20021C3.38323 7.84746 3.45213 7.56498 3.59268 7.31832C3.73323 7.07167 3.90823 6.8884 4.15489 6.71203C4.40154 6.57147 4.6537 6.42955 4.97063 6.35927C5.28756 6.28899 5.59898 6.26006 5.95173 6.26006Z" fill="#BA1313"/>
</g>
<defs>
<clipPath id="clip0_16_175">
<rect width="17.6378" height="17.6378" fill="white" transform="translate(0.482422 0.825424)"/>
</clipPath>
</defs>
</svg>
