<svg width="29" height="28" viewBox="0 0 29 28" fill="none" xmlns="http://www.w3.org/2000/svg">
<path d="M22.6619 3.18754C22.6929 3.21511 22.724 3.24268 22.756 3.27108C25.0319 5.29818 26.5474 8.21271 26.8136 11.2636C26.8144 11.3408 26.814 11.4179 26.8123 11.4951C26.8101 11.6995 26.8112 11.864 26.8705 12.0598C27.027 12.2103 27.185 12.3076 27.3742 12.4135C27.9986 12.7672 28.3312 13.3944 28.5296 14.0618C28.6178 14.4659 28.6093 14.8702 28.6069 15.2821C28.6071 15.3774 28.6073 15.4728 28.6076 15.5681C28.6079 15.7668 28.6075 15.9654 28.6064 16.1641C28.6051 16.4167 28.6058 16.6692 28.6072 16.9218C28.608 17.1183 28.6078 17.3149 28.6072 17.5114C28.607 17.6045 28.6072 17.6975 28.6077 17.7906C28.6121 18.7526 28.4115 19.5451 27.7343 20.2674C27.5654 20.4314 27.4156 20.5121 27.2002 20.6026C27.0443 20.6856 27.0443 20.6856 26.9274 20.8184C26.8497 21.1286 26.863 21.4318 26.8741 21.7497C26.8772 21.9172 26.8788 22.0847 26.8796 22.2522C26.8801 22.3143 26.8801 22.3143 26.8806 22.3777C26.8761 23.5637 26.4224 24.5969 25.6049 25.4442C24.7815 26.2131 23.7873 26.588 22.6696 26.5682C22.5536 26.5679 22.4375 26.5678 22.3214 26.5678C22.1406 26.5674 21.96 26.5661 21.7793 26.5628C21.6032 26.5599 21.4274 26.5602 21.2514 26.561C21.1974 26.5593 21.1434 26.5575 21.0878 26.5557C20.933 26.558 20.8162 26.5644 20.6713 26.6195C20.5389 26.7764 20.4664 26.9437 20.3869 27.1313C19.9754 27.6664 19.4435 27.8823 18.7945 27.9844C18.613 27.9987 18.4328 28.0005 18.2508 27.9995C18.2014 27.9997 18.1519 27.9998 18.1009 27.9999C17.9972 28 17.8934 27.9997 17.7897 27.9993C17.6327 27.9987 17.4757 27.9993 17.3188 28C16.4365 28.0008 15.6981 27.9596 15.0159 27.3391C14.6329 26.934 14.467 26.4311 14.4507 25.8801C14.4694 25.2727 14.6736 24.7896 15.0892 24.3459C15.4952 23.9658 15.9575 23.7712 16.5142 23.7666C16.5951 23.7658 16.5951 23.7658 16.6777 23.765C16.7354 23.7647 16.7931 23.7645 16.8525 23.7642C16.9427 23.7638 16.9427 23.7638 17.0347 23.7633C17.1618 23.7627 17.2889 23.7623 17.416 23.7621C17.6091 23.7616 17.8022 23.7598 17.9952 23.758C18.1191 23.7576 18.2429 23.7573 18.3668 23.7571C18.4239 23.7564 18.4811 23.7557 18.5399 23.755C19.1959 23.757 19.7472 23.9357 20.219 24.403C20.6144 24.8417 20.6144 24.8417 20.6144 25.1408C20.9664 25.1382 21.3184 25.1342 21.6704 25.129C21.7899 25.1274 21.9093 25.1262 22.0288 25.1253C23.0312 25.1182 23.8261 25.039 24.61 24.3447C25.2953 23.636 25.4051 22.7776 25.4274 21.8385C25.4295 21.7614 25.4318 21.6843 25.434 21.6072C25.4393 21.4201 25.4442 21.233 25.4487 21.0459C25.4148 21.0432 25.3809 21.0405 25.346 21.0377C24.8343 20.9902 24.4705 20.7984 24.1161 20.4218C23.7422 19.939 23.6771 19.4726 23.6764 18.882C23.6762 18.8246 23.6759 18.7672 23.6756 18.7081C23.6747 18.5185 23.6744 18.3289 23.674 18.1393C23.6737 18.0072 23.6734 17.8751 23.6731 17.743C23.6725 17.4659 23.6721 17.1888 23.6719 16.9118C23.6716 16.5577 23.6703 16.2036 23.6686 15.8495C23.6676 15.5765 23.6673 15.3035 23.6672 15.0305C23.667 14.9 23.6666 14.7695 23.6658 14.639C23.6648 14.456 23.665 14.273 23.6653 14.0899C23.6648 14.0366 23.6643 13.9832 23.6637 13.9282C23.6677 13.2874 23.85 12.8258 24.2881 12.362C24.5937 12.0737 24.9693 11.8892 25.3918 11.8892C25.1474 9.80652 24.5903 7.86 23.3444 6.14497C23.3215 6.11327 23.2986 6.08157 23.2751 6.04892C22.2255 4.60564 20.8922 3.48965 19.3063 2.67568C19.2714 2.65739 19.2366 2.6391 19.2006 2.62025C17.6302 1.80392 15.7305 1.38073 13.9602 1.48134C13.9182 1.48367 13.8761 1.48601 13.8328 1.48842C11.835 1.60949 9.88399 2.17431 8.21597 3.30129C8.18338 3.32328 8.1508 3.34526 8.11722 3.36791C7.71342 3.64245 7.335 3.9304 6.97742 4.26414C6.86345 4.3703 6.7465 4.4704 6.62707 4.57028C4.53844 6.40827 3.47758 9.1823 3.21109 11.8892C3.31491 11.8989 3.31491 11.8989 3.42082 11.9088C3.92165 11.9722 4.28293 12.2947 4.59739 12.6719C4.90733 13.0988 4.92587 13.5436 4.92647 14.0531C4.92689 14.1392 4.92689 14.1392 4.92732 14.227C4.92815 14.4166 4.92854 14.6062 4.92885 14.7958C4.92918 14.9279 4.92951 15.06 4.92984 15.1921C4.93043 15.4692 4.93077 15.7462 4.93097 16.0233C4.93128 16.3774 4.93264 16.7315 4.93426 17.0856C4.93533 17.3586 4.93562 17.6316 4.93571 17.9045C4.93588 18.035 4.93633 18.1655 4.93708 18.296C4.93806 18.4791 4.93794 18.6621 4.93757 18.8452C4.9381 18.8985 4.93862 18.9519 4.93916 19.0068C4.93511 19.6542 4.75036 20.128 4.29614 20.5878C3.85767 20.9939 3.41131 21.1227 2.81831 21.1147C1.96509 21.0566 1.2916 20.6948 0.708654 20.079C0.248631 19.5264 0.0214624 18.9518 0.0161039 18.2346C0.0157302 18.193 0.0153574 18.1515 0.0149723 18.1087C0.0138548 17.9716 0.0131867 17.8345 0.0126188 17.6974C0.012387 17.6503 0.0121546 17.6032 0.0119158 17.5546C0.0107311 17.3048 0.00991772 17.0551 0.00938352 16.8053C0.0087567 16.5491 0.00680243 16.293 0.00453934 16.0368C0.00304165 15.8383 0.00257482 15.6399 0.00237152 15.4413C0.00209695 15.347 0.00144296 15.2527 0.000378995 15.1584C-0.00984012 14.192 0.18428 13.398 0.865057 12.6712C0.997271 12.54 1.09947 12.4612 1.27073 12.3855C1.46974 12.2956 1.58875 12.2261 1.73238 12.0598C1.81741 11.7697 1.81264 11.4628 1.82547 11.1627C1.88819 9.75895 2.38317 8.36883 2.9836 7.11182C3.01505 7.04372 3.0465 6.97561 3.07891 6.90544C3.57801 5.8584 4.26983 4.92105 5.06149 4.07775C5.17298 3.95778 5.27905 3.8365 5.38296 3.71007C5.56753 3.49255 5.77979 3.31366 5.9979 3.13067C6.04702 3.08793 6.09614 3.04519 6.14675 3.00115C6.86988 2.38091 7.65632 1.86498 8.50034 1.42446C8.54008 1.40351 8.57981 1.38256 8.62075 1.36098C9.7371 0.780136 10.9554 0.376822 12.1971 0.173244C12.2696 0.16122 12.3421 0.149197 12.4168 0.136809C16.1167 -0.410161 19.8761 0.698277 22.6619 3.18754ZM1.80214 13.7807C1.41205 14.2611 1.41335 14.7675 1.4158 15.3618C1.4155 15.4503 1.41514 15.5387 1.41473 15.6271C1.41414 15.8118 1.41439 15.9965 1.41523 16.1811C1.41621 16.4164 1.41487 16.6516 1.41287 16.8869C1.41161 17.0693 1.4117 17.2518 1.41217 17.4342C1.41222 17.5209 1.41184 17.6076 1.41099 17.6942C1.40577 18.3273 1.4933 18.7847 1.91011 19.2757C2.1982 19.5423 2.56452 19.6561 2.94805 19.7058C3.12958 19.6755 3.23654 19.6232 3.38171 19.5103C3.47948 19.3498 3.50971 19.23 3.50991 19.0432C3.51039 18.9722 3.51039 18.9722 3.51088 18.8997C3.51065 18.8482 3.51042 18.7967 3.51018 18.7437C3.51038 18.6891 3.51058 18.6345 3.51078 18.5783C3.51129 18.3978 3.51095 18.2174 3.51057 18.0369C3.51065 17.9115 3.51076 17.7862 3.5109 17.6608C3.51107 17.398 3.51082 17.1353 3.51029 16.8725C3.50964 16.5355 3.51002 16.1985 3.5107 15.8616C3.51111 15.6027 3.51098 15.3438 3.51068 15.0849C3.51061 14.9607 3.5107 14.8364 3.51096 14.7121C3.51125 14.5385 3.51081 14.365 3.51018 14.1914C3.51041 14.1399 3.51064 14.0884 3.51088 14.0354C3.51056 13.988 3.51024 13.9407 3.50991 13.8919C3.50986 13.8509 3.50982 13.8098 3.50978 13.7676C3.49285 13.6313 3.45319 13.5417 3.38171 13.4248C2.84309 13.0172 2.23425 13.3964 1.80214 13.7807ZM25.2212 13.4248C25.1234 13.5849 25.0931 13.705 25.0926 13.8915C25.0922 13.9388 25.0918 13.986 25.0914 14.0348C25.0915 14.0861 25.0917 14.1375 25.0918 14.1905C25.0915 14.245 25.0912 14.2995 25.0909 14.3556C25.0901 14.5358 25.0902 14.716 25.0903 14.8962C25.0901 15.0214 25.0899 15.1466 25.0896 15.2719C25.0892 15.5344 25.0892 15.7969 25.0895 16.0594C25.0898 16.3959 25.0889 16.7324 25.0875 17.0688C25.0867 17.3275 25.0866 17.5861 25.0868 17.8447C25.0868 17.9688 25.0865 18.0929 25.0859 18.2169C25.0852 18.3904 25.0856 18.5638 25.0863 18.7372C25.0858 18.7885 25.0854 18.8398 25.0849 18.8926C25.0872 19.1643 25.1008 19.3468 25.2781 19.5671C25.4926 19.7169 25.6776 19.6865 25.927 19.6542C26.3383 19.5699 26.6813 19.3388 26.9274 18.9984C27.2061 18.5521 27.1892 18.0814 27.1871 17.5732C27.1874 17.4848 27.1878 17.3964 27.1882 17.3079C27.1888 17.1233 27.1885 16.9386 27.1877 16.7539C27.1867 16.5187 27.188 16.2835 27.19 16.0482C27.1913 15.8657 27.1912 15.6833 27.1907 15.5009C27.1907 15.4142 27.1911 15.3275 27.1919 15.2408C27.1968 14.6475 27.1302 14.2031 26.7508 13.7307C26.33 13.3636 25.7296 13.0401 25.2212 13.4248ZM15.9508 25.5389C15.8691 25.7958 15.8698 25.9966 15.9792 26.2427C16.2031 26.4777 16.4434 26.5687 16.762 26.5847C16.8512 26.5858 16.9404 26.5859 17.0296 26.5853C17.0773 26.5854 17.1251 26.5856 17.1742 26.5858C17.2746 26.5859 17.375 26.5856 17.4753 26.5848C17.6281 26.5839 17.7808 26.5848 17.9336 26.5859C18.0316 26.5858 18.1295 26.5856 18.2275 26.5853C18.2727 26.5856 18.3179 26.5859 18.3645 26.5863C18.6998 26.5821 18.9843 26.5282 19.2423 26.296C19.3356 26.1042 19.3767 25.9212 19.3632 25.7095C19.2377 25.4536 19.1088 25.3157 18.8513 25.1976C18.667 25.1729 18.4844 25.1737 18.2986 25.175C18.2454 25.1748 18.1922 25.1746 18.1374 25.1745C18.0251 25.1744 17.9129 25.1747 17.8006 25.1754C17.6291 25.1763 17.4577 25.1754 17.2862 25.1743C17.177 25.1744 17.0677 25.1746 16.9585 25.175C16.9074 25.1746 16.8562 25.1743 16.8036 25.1739C16.447 25.1779 16.1815 25.2459 15.9508 25.5389Z" fill="#BA1313"/>
<path d="M9.86341 6.6489C9.90265 6.64873 9.94189 6.64856 9.98233 6.64839C10.1135 6.6479 10.2446 6.64781 10.3757 6.64772C10.4699 6.64746 10.5641 6.64718 10.6583 6.64687C10.914 6.64612 11.1697 6.64576 11.4255 6.6455C11.5854 6.64534 11.7454 6.6451 11.9054 6.64485C12.4065 6.64407 12.9076 6.64352 13.4087 6.6433C13.986 6.64305 14.5633 6.64205 15.1407 6.6404C15.5876 6.63917 16.0345 6.6386 16.4815 6.63852C16.7481 6.63846 17.0146 6.63813 17.2812 6.63711C17.5323 6.63617 17.7834 6.63605 18.0345 6.63655C18.1262 6.63659 18.2179 6.63635 18.3096 6.63578C19.2531 6.63031 20.0802 6.79089 20.7935 7.45445C21.4381 8.14551 21.6555 8.89818 21.6533 9.82266C21.6538 9.91932 21.6538 9.91932 21.6542 10.0179C21.655 10.2297 21.6549 10.4416 21.6548 10.6534C21.655 10.8015 21.6553 10.9496 21.6556 11.0977C21.656 11.4077 21.656 11.7177 21.6557 12.0277C21.6553 12.3845 21.656 12.7412 21.6572 13.098C21.6584 13.4431 21.6585 13.7881 21.6583 14.1332C21.6584 14.2791 21.6586 14.4251 21.6592 14.571C21.6599 14.7757 21.6595 14.9803 21.6589 15.185C21.6593 15.2445 21.6597 15.304 21.6602 15.3653C21.654 16.2517 21.3606 16.977 20.7515 17.6208C20.2088 18.1197 19.5055 18.3821 18.7755 18.3773C18.6908 18.377 18.606 18.3766 18.5212 18.3763C18.4766 18.376 18.432 18.3758 18.386 18.3755C18.1484 18.3744 17.9107 18.3753 17.6731 18.3759C17.3713 18.3765 17.0695 18.3766 16.7677 18.3742C16.5233 18.3723 16.2789 18.3726 16.0344 18.3744C15.9416 18.3747 15.8488 18.3742 15.756 18.3728C15.2476 18.3532 15.2476 18.3532 14.7817 18.5207C14.6671 18.6357 14.5708 18.7563 14.4716 18.8847C14.3968 18.9534 14.3203 19.0204 14.2422 19.0854C14.0131 19.2829 13.8024 19.4946 13.5921 19.7118C13.513 19.7925 13.4339 19.8731 13.3547 19.9537C13.2321 20.0787 13.1097 20.204 12.9879 20.3299C12.8688 20.4528 12.7489 20.5747 12.6288 20.6965C12.5752 20.7525 12.5752 20.7525 12.5205 20.8097C12.232 21.0999 11.9244 21.2869 11.518 21.3605C11.0888 21.3551 10.7052 21.2892 10.3725 21.0004C10.037 20.6382 9.89394 20.2933 9.90508 19.8002C9.90532 19.7592 9.90556 19.7181 9.90581 19.6757C9.90675 19.5459 9.90889 19.4162 9.91107 19.2864C9.91193 19.1978 9.91271 19.1092 9.91341 19.0206C9.91528 18.8046 9.91822 18.5888 9.92174 18.3729C9.88908 18.374 9.85642 18.3751 9.82276 18.3762C9.01634 18.392 8.309 18.048 7.7281 17.5033C7.1362 16.8429 6.93714 16.0604 6.94223 15.1877C6.94193 15.1232 6.94163 15.0588 6.94133 14.9924C6.94058 14.7815 6.94107 14.5706 6.94165 14.3597C6.94153 14.2119 6.94137 14.064 6.94115 13.9161C6.9409 13.6071 6.94125 13.2981 6.94207 12.9891C6.94299 12.6336 6.94269 12.2781 6.94175 11.9226C6.94088 11.5784 6.94098 11.2342 6.94148 10.8899C6.94159 10.7444 6.94145 10.599 6.94105 10.4535C6.94062 10.2497 6.94129 10.0459 6.94223 9.84203C6.94189 9.78281 6.94154 9.72358 6.94119 9.66256C6.94842 8.81374 7.21798 8.07835 7.80275 7.4569C8.37511 6.93306 9.09159 6.65076 9.86341 6.6489ZM8.67052 8.64747C8.49504 8.92855 8.37951 9.2025 8.37778 9.53629C8.37737 9.59034 8.37697 9.64439 8.37655 9.70008C8.37639 9.75928 8.37624 9.81849 8.37608 9.8795C8.37571 9.94194 8.37534 10.0044 8.37495 10.0687C8.37383 10.2758 8.37317 10.4829 8.3726 10.69C8.37237 10.7608 8.37213 10.8315 8.3719 10.9044C8.37083 11.2403 8.37 11.5762 8.36953 11.912C8.36897 12.2989 8.36748 12.6857 8.36518 13.0726C8.36325 13.4083 8.36258 13.744 8.36235 14.0797C8.36207 14.2221 8.36141 14.3646 8.36036 14.507C8.35897 14.7067 8.35903 14.9064 8.35942 15.1061C8.35869 15.1646 8.35796 15.2231 8.35721 15.2834C8.36092 15.7995 8.51092 16.1987 8.86136 16.5811C9.15155 16.8465 9.46436 16.9547 9.85198 16.963C9.90359 16.9646 9.9552 16.9662 10.0084 16.9679C10.116 16.9708 10.2237 16.9734 10.3314 16.9755C10.6293 16.9856 10.867 16.9973 11.1161 17.1785C11.3081 17.4742 11.3134 17.7347 11.3158 18.0756C11.3168 18.1281 11.3179 18.1807 11.3189 18.2348C11.322 18.4017 11.3239 18.5685 11.3258 18.7354C11.3277 18.849 11.3297 18.9625 11.3317 19.076C11.3365 19.3535 11.3403 19.6309 11.3436 19.9084C11.6853 19.6261 11.9949 19.3187 12.3055 19.0029C12.3591 18.9488 12.4127 18.8947 12.4663 18.8407C12.6922 18.6129 12.9178 18.3849 13.1428 18.1563C13.2812 18.0158 13.42 17.8757 13.5591 17.7359C13.6371 17.6571 13.7148 17.5779 13.7924 17.4986C13.84 17.4508 13.8877 17.4029 13.9368 17.3536C13.9784 17.3115 14.02 17.2693 14.0629 17.2259C14.3272 17.0044 14.5804 16.9913 14.9144 16.9925C14.9799 16.992 14.9799 16.992 15.0467 16.9916C15.1413 16.991 15.2359 16.9906 15.3304 16.9905C15.4804 16.9903 15.6303 16.9894 15.7802 16.9882C16.2064 16.9851 16.6327 16.9833 17.0589 16.9819C17.3199 16.981 17.581 16.9793 17.842 16.9771C17.9412 16.9765 18.0403 16.9761 18.1395 16.9761C18.2786 16.9761 18.4176 16.9751 18.5567 16.9738C18.5972 16.9741 18.6376 16.9743 18.6793 16.9746C19.1428 16.968 19.4944 16.8062 19.8313 16.4945C20.0818 16.214 20.2223 15.8683 20.2242 15.4935C20.2246 15.4394 20.225 15.3854 20.2255 15.3297C20.2256 15.2705 20.2258 15.2113 20.2259 15.1502C20.2265 15.0566 20.2265 15.0566 20.2271 14.961C20.2282 14.7539 20.2288 14.5468 20.2294 14.3397C20.2296 14.269 20.2299 14.1982 20.2301 14.1254C20.2312 13.7895 20.232 13.4536 20.2325 13.1177C20.233 12.7308 20.2345 12.344 20.2368 11.9572C20.2388 11.6215 20.2394 11.2858 20.2397 10.95C20.2399 10.8076 20.2406 10.6652 20.2417 10.5227C20.243 10.323 20.243 10.1234 20.2426 9.92365C20.2433 9.86513 20.2441 9.80661 20.2448 9.74632C20.2411 9.23384 20.0922 8.82973 19.7447 8.44863C19.4268 8.16987 19.0601 8.07182 18.646 8.07036C18.5885 8.07005 18.5885 8.07005 18.5299 8.06973C18.4011 8.0691 18.2724 8.06888 18.1436 8.06866C18.0514 8.06831 17.9592 8.06793 17.867 8.06753C17.5639 8.06633 17.2607 8.06574 16.9576 8.06518C16.8532 8.06495 16.7488 8.06471 16.6444 8.06448C16.1538 8.06339 15.6631 8.06258 15.1725 8.06211C14.6065 8.06155 14.0406 8.06006 13.4746 8.05776C13.037 8.05604 12.5993 8.0552 12.1617 8.05501C11.9004 8.05488 11.6391 8.05437 11.3778 8.05294C11.1318 8.05161 10.8858 8.05137 10.6398 8.05196C10.5498 8.05199 10.4597 8.05163 10.3697 8.05085C9.69829 8.04534 9.13483 8.11803 8.67052 8.64747Z" fill="#BA1313"/>
<path d="M11.4074 11.6467C11.6782 11.7885 11.8409 11.9841 11.9837 12.2483C12.0844 12.6091 12.0501 12.8843 11.8715 13.2071C11.7198 13.4243 11.5405 13.5679 11.287 13.6524C10.9121 13.6947 10.6106 13.6841 10.3008 13.4551C10.0844 13.2555 9.99494 13.0927 9.95757 12.8066C9.94261 12.4322 9.96744 12.182 10.2064 11.8893C10.5463 11.5757 10.9669 11.4939 11.4074 11.6467Z" fill="#BA1313"/>
<path d="M18.0757 11.6544C18.3369 11.8041 18.5381 11.9916 18.624 12.2873C18.6648 12.6 18.6786 12.9106 18.5315 13.1973C18.3477 13.4295 18.1648 13.5589 17.8846 13.6523C17.493 13.6941 17.236 13.6603 16.9177 13.4248C16.6853 13.1798 16.5882 12.9745 16.5552 12.6392C16.5644 12.3336 16.6789 12.0781 16.8891 11.8563C17.2219 11.5675 17.6593 11.5007 18.0757 11.6544Z" fill="#BA1313"/>
<path d="M14.7703 11.6652C15.0216 11.8423 15.2266 12.0497 15.3248 12.3442C15.3552 12.6834 15.3562 12.9674 15.1542 13.2541C14.8919 13.5177 14.6929 13.6595 14.3117 13.6665C14.0062 13.6616 13.8037 13.6093 13.581 13.3877C13.3183 13.0938 13.2593 12.8788 13.2656 12.4861C13.2908 12.1819 13.4274 12.011 13.647 11.8145C13.9711 11.5437 14.3781 11.537 14.7703 11.6652Z" fill="#BA1313"/>
</svg>
