<svg width="20" height="18" viewBox="0 0 20 18" fill="none" xmlns="http://www.w3.org/2000/svg">
<path d="M10.5257 0.280167C10.1094 0.280209 9.69914 0.380127 9.32944 0.571534C8.95974 0.762941 8.64136 1.04025 8.40101 1.38018C8.16067 1.72011 8.00539 2.11274 7.94821 2.5251C7.89102 2.93747 7.9336 3.35753 8.07237 3.75004H0.549805V13.2922H10.0919V5.446C10.2352 5.47109 10.3803 5.48412 10.5257 5.48497C11.2159 5.48497 11.8778 5.21079 12.3659 4.72275C12.8539 4.2347 13.1281 3.57277 13.1281 2.88257C13.1281 2.19237 12.8539 1.53044 12.3659 1.04239C11.8778 0.554348 11.2159 0.280167 10.5257 0.280167ZM16.1642 2.0151C15.7041 2.0151 15.2628 2.19789 14.9374 2.52325C14.6121 2.84862 14.4293 3.2899 14.4293 3.75004C14.4293 4.21017 14.6121 4.65146 14.9374 4.97682C15.2628 5.30218 15.7041 5.48497 16.1642 5.48497C16.6244 5.48497 17.0656 5.30218 17.391 4.97682C17.7164 4.65146 17.8992 4.21017 17.8992 3.75004C17.8992 3.2899 17.7164 2.84862 17.391 2.52325C17.0656 2.19789 16.6244 2.0151 16.1642 2.0151ZM3.15221 6.35244H4.88714H5.75461H7.48954V7.21991H5.75461V10.6898H4.88714V7.21991H3.15221V6.35244ZM11.8269 6.35244V15.0271H6.28322C7.07262 16.5712 8.67798 17.6295 10.5257 17.6295C12.9025 17.6295 14.8886 15.9296 15.2442 13.57C15.2789 13.3358 15.2968 13.1013 15.2968 12.8584V6.35244H11.8269ZM17.0317 6.35244V7.21991V12.8584V14.8983C18.5263 14.5149 19.6341 13.1733 19.6341 11.5572V6.35244H17.0317Z" fill="#BA1313"/>
</svg>
