<svg width="20" height="18" viewBox="0 0 20 18" fill="none" xmlns="http://www.w3.org/2000/svg">
<path d="M10.5259 0.280167C10.1096 0.280209 9.69939 0.380127 9.32969 0.571534C8.95998 0.762941 8.6416 1.04025 8.40126 1.38018C8.16092 1.72011 8.00564 2.11274 7.94845 2.5251C7.89127 2.93747 7.93385 3.35753 8.07262 3.75004H0.550049V13.2922H10.0922V5.446C10.2354 5.47109 10.3805 5.48412 10.5259 5.48497C11.2161 5.48497 11.8781 5.21079 12.3661 4.72275C12.8541 4.2347 13.1283 3.57277 13.1283 2.88257C13.1283 2.19237 12.8541 1.53044 12.3661 1.04239C11.8781 0.554348 11.2161 0.280167 10.5259 0.280167ZM16.1645 2.0151C15.7043 2.0151 15.263 2.19789 14.9377 2.52325C14.6123 2.84862 14.4295 3.2899 14.4295 3.75004C14.4295 4.21017 14.6123 4.65146 14.9377 4.97682C15.263 5.30218 15.7043 5.48497 16.1645 5.48497C16.6246 5.48497 17.0659 5.30218 17.3912 4.97682C17.7166 4.65146 17.8994 4.21017 17.8994 3.75004C17.8994 3.2899 17.7166 2.84862 17.3912 2.52325C17.0659 2.19789 16.6246 2.0151 16.1645 2.0151ZM3.15245 6.35244H4.88739H5.75485H7.48979V7.21991H5.75485V10.6898H4.88739V7.21991H3.15245V6.35244ZM11.8271 6.35244V15.0271H6.28347C7.07286 16.5712 8.67822 17.6295 10.5259 17.6295C12.9028 17.6295 14.8888 15.9296 15.2445 13.57C15.2792 13.3358 15.297 13.1013 15.297 12.8584V6.35244H11.8271ZM17.0319 6.35244V7.21991V12.8584V14.8983C18.5266 14.5149 19.6343 13.1733 19.6343 11.5572V6.35244H17.0319Z" fill="#880909"/>
</svg>
