<svg width="17" height="17" viewBox="0 0 17 17" fill="none" xmlns="http://www.w3.org/2000/svg">
<g clip-path="url(#clip0_22_7)">
<path d="M-0.199951 1.54413C5.09138 1.54413 10.3827 1.54413 15.8344 1.54413C15.8344 4.96489 15.8344 8.38565 15.8344 11.9101C10.543 11.9101 5.25172 11.9101 -0.199951 11.9101C-0.199951 8.48931 -0.199951 5.06855 -0.199951 1.54413ZM6.34531 4.26871C6.34531 5.89125 6.34531 7.51378 6.34531 9.18549C6.49202 9.13659 6.62103 9.08225 6.75672 9.01129C6.77778 9.00041 6.79884 8.98953 6.82053 8.97832C6.88859 8.94312 6.95655 8.90772 7.0245 8.87232C7.07165 8.84788 7.1188 8.82344 7.16596 8.79902C7.45124 8.65114 7.736 8.50227 8.02004 8.35204C8.18695 8.26381 8.35441 8.17663 8.52185 8.08939C8.74002 7.9757 8.95799 7.86164 9.17559 7.74686C9.4061 7.62529 9.63721 7.50488 9.86848 7.38476C9.96744 7.33331 10.0664 7.28186 10.1653 7.23039C10.2268 7.19843 10.2883 7.16649 10.3498 7.13457C10.4315 7.09215 10.5131 7.0496 10.5946 7.007C10.6184 6.99468 10.6422 6.98237 10.6667 6.96969C10.7979 6.90098 10.9212 6.82726 11.0429 6.74276C10.9291 6.64911 10.8036 6.58661 10.6728 6.52048C10.6489 6.50825 10.6249 6.49603 10.6003 6.48343C10.5492 6.45734 10.4981 6.43131 10.447 6.40533C10.3142 6.33788 10.1817 6.27006 10.0492 6.2023C10.0234 6.18913 9.9976 6.17596 9.97103 6.16239C9.79138 6.0706 9.61225 5.9779 9.43396 5.8835C9.41186 5.8718 9.38977 5.86011 9.367 5.84806C9.32284 5.82468 9.27868 5.8013 9.23452 5.77791C9.09379 5.70364 8.95264 5.63018 8.81153 5.55663C8.76632 5.53305 8.76632 5.53305 8.72019 5.509C8.62799 5.46093 8.53577 5.41287 8.44355 5.36481C8.08036 5.17553 7.71726 4.98609 7.35496 4.7951C7.14851 4.68634 6.9417 4.57825 6.73482 4.47032C6.70329 4.45386 6.67176 4.43741 6.63928 4.42046C6.49272 4.34376 6.49272 4.34376 6.34531 4.26871Z" fill="#880909"/>
<path d="M11.7101 13.0766C11.966 13.2698 12.0854 13.4632 12.2327 13.7578C13.6072 13.7681 14.9817 13.7784 16.3979 13.7891C16.3979 14.1095 16.3979 14.4298 16.3979 14.7599C14.3361 14.7754 14.3361 14.7754 12.2327 14.7912C12.181 14.8842 12.1293 14.9772 12.0761 15.0731C11.8339 15.4016 11.5211 15.609 11.1193 15.6828C10.699 15.7363 10.3254 15.6364 9.98532 15.3849C9.8069 15.2342 9.66614 15.0687 9.57074 14.8539C9.57074 14.8229 9.57074 14.7919 9.57074 14.7599C6.53236 14.7599 3.49398 14.7599 0.363525 14.7599C0.363525 14.4395 0.363525 14.1192 0.363525 13.7891C3.39157 13.7787 6.41962 13.7684 9.53942 13.7578C9.59109 13.6544 9.64277 13.5511 9.69601 13.4446C9.89789 13.1614 10.1708 12.9536 10.5095 12.8644C10.9388 12.7973 11.3406 12.8345 11.7101 13.0766Z" fill="#880909"/>
</g>
<defs>
<clipPath id="clip0_22_7">
<rect width="16.0343" height="16.0343" fill="white" transform="translate(0.363525 0.604614)"/>
</clipPath>
</defs>
</svg>
