<?xml version="1.0" encoding="UTF-8"?>
<svg version="1.1" xmlns="http://www.w3.org/2000/svg" width="512" height="512">
<path d="M0 0 C168.96 0 337.92 0 512 0 C512 109.23 512 218.46 512 331 C343.04 331 174.08 331 0 331 C0 221.77 0 112.54 0 0 Z M209 87 C209 138.81 209 190.62 209 244 C213.68471392 242.43842869 217.80403799 240.70353947 222.13671875 238.4375 C222.80920151 238.09011276 223.48168427 237.74272552 224.17454529 237.3848114 C226.34775131 236.26076951 228.51766217 235.13052807 230.6875 234 C232.19303392 233.21949404 233.69873142 232.43930353 235.20458984 231.65942383 C244.31382304 226.93729004 253.40659455 222.18385524 262.4765625 217.38671875 C267.80633668 214.56934818 273.15353617 211.78553047 278.5 209 C285.46656257 205.36961875 292.42668226 201.72767791 299.375 198.0625 C306.7356317 194.18052301 314.11505763 190.33550809 321.5 186.5 C324.65984592 184.85727549 327.81949817 183.21417949 330.97900391 181.57080078 C332.94183566 180.55020441 334.90503154 179.53030789 336.86865234 178.51123047 C339.4767185 177.15671119 342.08241837 175.79774832 344.6875 174.4375 C345.44675781 174.04433594 346.20601562 173.65117187 346.98828125 173.24609375 C351.17792364 171.05224465 355.11476114 168.6982525 359 166 C355.3663102 163.00958657 351.35893523 161.01401535 347.18359375 158.90234375 C346.41931564 158.51188873 345.65503754 158.12143372 344.86759949 157.71914673 C343.23647215 156.88626975 341.60449335 156.05505857 339.97174072 155.22537231 C335.73387786 153.0717386 331.5021929 150.90602003 327.26953125 148.7421875 C326.446203 148.3217366 325.62287476 147.90128571 324.77459717 147.46809387 C319.03807894 144.53708001 313.31814712 141.5770501 307.625 138.5625 C306.91947998 138.18907471 306.21395996 137.81564941 305.48706055 137.4309082 C304.07693023 136.68434952 302.6668551 135.93768657 301.25683594 135.19091797 C296.76297547 132.81953638 292.25570815 130.47376803 287.75 128.125 C286.30633057 127.37222778 286.30633057 127.37222778 284.83349609 126.60424805 C281.88914829 125.069209 278.94460736 123.53454109 276 122 C264.4025425 115.95614665 252.80826849 109.90697251 241.23950195 103.80834961 C234.64719578 100.33536052 228.04367683 96.88402277 221.4375 93.4375 C220.43074219 92.91220703 219.42398438 92.38691406 218.38671875 91.84570312 C213.70698221 89.39623828 213.70698221 89.39623828 209 87 Z " fill="#000000" transform="translate(0,30)"/>
<path d="M0 0 C8.17067916 6.16729148 11.98435432 12.34370864 16.6875 21.75 C60.5775 22.08 104.4675 22.41 149.6875 22.75 C149.6875 32.98 149.6875 43.21 149.6875 53.75 C83.8525 54.245 83.8525 54.245 16.6875 54.75 C15.0375 57.72 13.3875 60.69 11.6875 63.75 C3.9532695 74.23928107 -6.03533409 80.86139371 -18.86328125 83.21875 C-32.28671954 84.92824721 -44.21637845 81.7390687 -55.07421875 73.70703125 C-60.77143933 68.89547724 -65.26606643 63.61066746 -68.3125 56.75 C-68.3125 55.76 -68.3125 54.77 -68.3125 53.75 C-165.3325 53.75 -262.3525 53.75 -362.3125 53.75 C-362.3125 43.52 -362.3125 33.29 -362.3125 22.75 C-265.6225 22.42 -168.9325 22.09 -69.3125 21.75 C-67.6625 18.45 -66.0125 15.15 -64.3125 11.75 C-57.86619333 2.708427 -49.15060165 -3.92868616 -38.3359375 -6.77734375 C-24.62734366 -8.9204185 -11.79879145 -7.73024268 0 0 Z " fill="#000000" transform="translate(362.3125,398.25)"/>
</svg>
