<svg width="17" height="17" viewBox="0 0 17 17" fill="none" xmlns="http://www.w3.org/2000/svg">
<g clip-path="url(#clip0_22_7)">
<path d="M-0.200195 1.54413C5.09113 1.54413 10.3825 1.54413 15.8341 1.54413C15.8341 4.96489 15.8341 8.38565 15.8341 11.9101C10.5428 11.9101 5.25148 11.9101 -0.200195 11.9101C-0.200195 8.48931 -0.200195 5.06855 -0.200195 1.54413ZM6.34507 4.26871C6.34507 5.89125 6.34507 7.51378 6.34507 9.18549C6.49178 9.13659 6.62078 9.08225 6.75647 9.01129C6.77753 9.00041 6.79859 8.98953 6.82029 8.97832C6.88835 8.94312 6.9563 8.90772 7.02426 8.87232C7.07141 8.84788 7.11856 8.82344 7.16572 8.79902C7.45099 8.65114 7.73575 8.50227 8.0198 8.35204C8.18671 8.26381 8.35417 8.17663 8.5216 8.08939C8.73978 7.9757 8.95775 7.86164 9.17535 7.74686C9.40586 7.62529 9.63696 7.50488 9.86824 7.38476C9.96719 7.33331 10.0661 7.28186 10.1651 7.23039C10.2266 7.19843 10.288 7.16649 10.3495 7.13457C10.4312 7.09215 10.5128 7.0496 10.5944 7.007C10.6182 6.99468 10.642 6.98237 10.6665 6.96969C10.7977 6.90098 10.921 6.82726 11.0426 6.74276C10.9288 6.64911 10.8033 6.58661 10.6726 6.52048C10.6486 6.50825 10.6247 6.49603 10.6 6.48343C10.549 6.45734 10.4979 6.43131 10.4467 6.40533C10.314 6.33788 10.1815 6.27006 10.0489 6.2023C10.0231 6.18913 9.99735 6.17596 9.97079 6.16239C9.79114 6.0706 9.61201 5.9779 9.43371 5.8835C9.41162 5.8718 9.38952 5.86011 9.36676 5.84806C9.3226 5.82468 9.27844 5.8013 9.23428 5.77791C9.09355 5.70364 8.95239 5.63018 8.81129 5.55663C8.76608 5.53305 8.76608 5.53305 8.71995 5.509C8.62774 5.46093 8.53553 5.41287 8.44331 5.36481C8.08011 5.17553 7.71701 4.98609 7.35471 4.7951C7.14826 4.68634 6.94146 4.57825 6.73457 4.47032C6.70305 4.45386 6.67152 4.43741 6.63903 4.42046C6.49248 4.34376 6.49248 4.34376 6.34507 4.26871Z" fill="#BA1313"/>
<path d="M11.7098 13.0766C11.9657 13.2698 12.0852 13.4632 12.2324 13.7578C13.6069 13.7681 14.9815 13.7784 16.3976 13.7891C16.3976 14.1095 16.3976 14.4298 16.3976 14.7599C14.3359 14.7754 14.3359 14.7754 12.2324 14.7912C12.1808 14.8843 12.1291 14.9773 12.0759 15.0731C11.8336 15.4016 11.5208 15.609 11.1191 15.6828C10.6987 15.7363 10.3251 15.6365 9.98508 15.3849C9.80666 15.2342 9.6659 15.0687 9.57049 14.8539C9.57049 14.8229 9.57049 14.7919 9.57049 14.7599C6.53211 14.7599 3.49373 14.7599 0.363281 14.7599C0.363281 14.4396 0.363281 14.1192 0.363281 13.7891C3.39133 13.7788 6.41937 13.7684 9.53918 13.7578C9.59085 13.6544 9.64252 13.5511 9.69576 13.4446C9.89764 13.1615 10.1706 12.9536 10.5093 12.8644C10.9386 12.7973 11.3403 12.8345 11.7098 13.0766Z" fill="#BA1313"/>
</g>
<defs>
<clipPath id="clip0_22_7">
<rect width="16.0343" height="16.0343" fill="white" transform="translate(0.363281 0.604614)"/>
</clipPath>
</defs>
</svg>
